
<svg width="788px" height="1634px" viewBox="0 0 788 1634" version="1.1" xmlns="http://www.w3.org/2000/svg" xmlns:xlink="http://www.w3.org/1999/xlink">
    <g id="Welcome" stroke="none" stroke-width="1" fill="none" fill-rule="evenodd">
        <g id="Desktop" transform="translate(-1.000000, -2.000000)" stroke-width="10" stroke="#D8D8D8">
            <g id="Blog-Background">
                <g id="Icons" transform="translate(347.000000, 0.000000)">
                    <g id="icon-writing" transform="translate(285.000000, 0.000000)">
                        <path d="M4.95774538,11.3296125 C13.2430221,4.90116236 22.124738,4.90116236 31.6028931,11.3296125 C41.0810483,17.7580626 50.3576229,16.9545063 59.4326169,8.91894368" id="Path-3" transform="translate(32.195181, 11.061760) rotate(-5.000000) translate(-32.195181, -11.061760) "></path>
                        <path d="M4.95774538,32.7566462 C13.2430221,26.3281961 22.124738,26.3281961 31.6028931,32.7566462 C41.0810483,39.1850963 50.3576229,38.3815401 59.4326169,30.3459774" id="Path-3" transform="translate(32.195181, 32.488794) rotate(-5.000000) translate(-32.195181, -32.488794) "></path>
                        <path d="M4.95774538,54.18368 C13.2430221,47.7552299 22.124738,47.7552299 31.6028931,54.18368 C41.0810483,60.6121301 50.3576229,59.8085738 59.4326169,51.7730112" id="Path-3" transform="translate(32.195181, 53.915828) rotate(-5.000000) translate(-32.195181, -53.915828) "></path>
                    </g>
                    <g id="icon-writing" transform="translate(379.000000, 0.000000)">
                        <path d="M4.95774538,11.3296125 C13.2430221,4.90116236 22.124738,4.90116236 31.6028931,11.3296125 C41.0810483,17.7580626 50.3576229,16.9545063 59.4326169,8.91894368" id="Path-3" transform="translate(32.195181, 11.061760) rotate(-5.000000) translate(-32.195181, -11.061760) "></path>
                        <path d="M4.95774538,32.7566462 C13.2430221,26.3281961 22.124738,26.3281961 31.6028931,32.7566462 C41.0810483,39.1850963 50.3576229,38.3815401 59.4326169,30.3459774" id="Path-3" transform="translate(32.195181, 32.488794) rotate(-5.000000) translate(-32.195181, -32.488794) "></path>
                        <path d="M4.95774538,54.18368 C13.2430221,47.7552299 22.124738,47.7552299 31.6028931,54.18368 C41.0810483,60.6121301 50.3576229,59.8085738 59.4326169,51.7730112" id="Path-3" transform="translate(32.195181, 53.915828) rotate(-5.000000) translate(-32.195181, -53.915828) "></path>
                    </g>
                    <g id="icon-writing" transform="translate(285.000000, 94.000000)">
                        <path d="M4.95774538,11.3296125 C13.2430221,4.90116236 22.124738,4.90116236 31.6028931,11.3296125 C41.0810483,17.7580626 50.3576229,16.9545063 59.4326169,8.91894368" id="Path-3" transform="translate(32.195181, 11.061760) rotate(-5.000000) translate(-32.195181, -11.061760) "></path>
                        <path d="M4.95774538,32.7566462 C13.2430221,26.3281961 22.124738,26.3281961 31.6028931,32.7566462 C41.0810483,39.1850963 50.3576229,38.3815401 59.4326169,30.3459774" id="Path-3" transform="translate(32.195181, 32.488794) rotate(-5.000000) translate(-32.195181, -32.488794) "></path>
                        <path d="M4.95774538,54.18368 C13.2430221,47.7552299 22.124738,47.7552299 31.6028931,54.18368 C41.0810483,60.6121301 50.3576229,59.8085738 59.4326169,51.7730112" id="Path-3" transform="translate(32.195181, 53.915828) rotate(-5.000000) translate(-32.195181, -53.915828) "></path>
                    </g>
                    <g id="icon-writing" transform="translate(379.000000, 94.000000)">
                        <path d="M4.95774538,11.3296125 C13.2430221,4.90116236 22.124738,4.90116236 31.6028931,11.3296125 C41.0810483,17.7580626 50.3576229,16.9545063 59.4326169,8.91894368" id="Path-3" transform="translate(32.195181, 11.061760) rotate(-5.000000) translate(-32.195181, -11.061760) "></path>
                        <path d="M4.95774538,32.7566462 C13.2430221,26.3281961 22.124738,26.3281961 31.6028931,32.7566462 C41.0810483,39.1850963 50.3576229,38.3815401 59.4326169,30.3459774" id="Path-3" transform="translate(32.195181, 32.488794) rotate(-5.000000) translate(-32.195181, -32.488794) "></path>
                        <path d="M4.95774538,54.18368 C13.2430221,47.7552299 22.124738,47.7552299 31.6028931,54.18368 C41.0810483,60.6121301 50.3576229,59.8085738 59.4326169,51.7730112" id="Path-3" transform="translate(32.195181, 53.915828) rotate(-5.000000) translate(-32.195181, -53.915828) "></path>
                    </g>
                    <g id="icon-writing" transform="translate(285.000000, 188.000000)">
                        <path d="M4.95774538,11.3296125 C13.2430221,4.90116236 22.124738,4.90116236 31.6028931,11.3296125 C41.0810483,17.7580626 50.3576229,16.9545063 59.4326169,8.91894368" id="Path-3" transform="translate(32.195181, 11.061760) rotate(-5.000000) translate(-32.195181, -11.061760) "></path>
                        <path d="M4.95774538,32.7566462 C13.2430221,26.3281961 22.124738,26.3281961 31.6028931,32.7566462 C41.0810483,39.1850963 50.3576229,38.3815401 59.4326169,30.3459774" id="Path-3" transform="translate(32.195181, 32.488794) rotate(-5.000000) translate(-32.195181, -32.488794) "></path>
                        <path d="M4.95774538,54.18368 C13.2430221,47.7552299 22.124738,47.7552299 31.6028931,54.18368 C41.0810483,60.6121301 50.3576229,59.8085738 59.4326169,51.7730112" id="Path-3" transform="translate(32.195181, 53.915828) rotate(-5.000000) translate(-32.195181, -53.915828) "></path>
                    </g>
                    <g id="icon-writing" transform="translate(379.000000, 188.000000)">
                        <path d="M4.95774538,11.3296125 C13.2430221,4.90116236 22.124738,4.90116236 31.6028931,11.3296125 C41.0810483,17.7580626 50.3576229,16.9545063 59.4326169,8.91894368" id="Path-3" transform="translate(32.195181, 11.061760) rotate(-5.000000) translate(-32.195181, -11.061760) "></path>
                        <path d="M4.95774538,32.7566462 C13.2430221,26.3281961 22.124738,26.3281961 31.6028931,32.7566462 C41.0810483,39.1850963 50.3576229,38.3815401 59.4326169,30.3459774" id="Path-3" transform="translate(32.195181, 32.488794) rotate(-5.000000) translate(-32.195181, -32.488794) "></path>
                        <path d="M4.95774538,54.18368 C13.2430221,47.7552299 22.124738,47.7552299 31.6028931,54.18368 C41.0810483,60.6121301 50.3576229,59.8085738 59.4326169,51.7730112" id="Path-3" transform="translate(32.195181, 53.915828) rotate(-5.000000) translate(-32.195181, -53.915828) "></path>
                    </g>
                    <g id="icon-writing" transform="translate(285.000000, 282.000000)">
                        <path d="M4.95774538,11.3296125 C13.2430221,4.90116236 22.124738,4.90116236 31.6028931,11.3296125 C41.0810483,17.7580626 50.3576229,16.9545063 59.4326169,8.91894368" id="Path-3" transform="translate(32.195181, 11.061760) rotate(-5.000000) translate(-32.195181, -11.061760) "></path>
                        <path d="M4.95774538,32.7566462 C13.2430221,26.3281961 22.124738,26.3281961 31.6028931,32.7566462 C41.0810483,39.1850963 50.3576229,38.3815401 59.4326169,30.3459774" id="Path-3" transform="translate(32.195181, 32.488794) rotate(-5.000000) translate(-32.195181, -32.488794) "></path>
                        <path d="M4.95774538,54.18368 C13.2430221,47.7552299 22.124738,47.7552299 31.6028931,54.18368 C41.0810483,60.6121301 50.3576229,59.8085738 59.4326169,51.7730112" id="Path-3" transform="translate(32.195181, 53.915828) rotate(-5.000000) translate(-32.195181, -53.915828) "></path>
                    </g>
                    <g id="icon-writing" transform="translate(379.000000, 282.000000)">
                        <path d="M4.95774538,11.3296125 C13.2430221,4.90116236 22.124738,4.90116236 31.6028931,11.3296125 C41.0810483,17.7580626 50.3576229,16.9545063 59.4326169,8.91894368" id="Path-3" transform="translate(32.195181, 11.061760) rotate(-5.000000) translate(-32.195181, -11.061760) "></path>
                        <path d="M4.95774538,32.7566462 C13.2430221,26.3281961 22.124738,26.3281961 31.6028931,32.7566462 C41.0810483,39.1850963 50.3576229,38.3815401 59.4326169,30.3459774" id="Path-3" transform="translate(32.195181, 32.488794) rotate(-5.000000) translate(-32.195181, -32.488794) "></path>
                        <path d="M4.95774538,54.18368 C13.2430221,47.7552299 22.124738,47.7552299 31.6028931,54.18368 C41.0810483,60.6121301 50.3576229,59.8085738 59.4326169,51.7730112" id="Path-3" transform="translate(32.195181, 53.915828) rotate(-5.000000) translate(-32.195181, -53.915828) "></path>
                    </g>
                    <g id="icon-writing" transform="translate(191.000000, 94.000000)">
                        <path d="M4.95774538,11.3296125 C13.2430221,4.90116236 22.124738,4.90116236 31.6028931,11.3296125 C41.0810483,17.7580626 50.3576229,16.9545063 59.4326169,8.91894368" id="Path-3" transform="translate(32.195181, 11.061760) rotate(-5.000000) translate(-32.195181, -11.061760) "></path>
                        <path d="M4.95774538,32.7566462 C13.2430221,26.3281961 22.124738,26.3281961 31.6028931,32.7566462 C41.0810483,39.1850963 50.3576229,38.3815401 59.4326169,30.3459774" id="Path-3" transform="translate(32.195181, 32.488794) rotate(-5.000000) translate(-32.195181, -32.488794) "></path>
                        <path d="M4.95774538,54.18368 C13.2430221,47.7552299 22.124738,47.7552299 31.6028931,54.18368 C41.0810483,60.6121301 50.3576229,59.8085738 59.4326169,51.7730112" id="Path-3" transform="translate(32.195181, 53.915828) rotate(-5.000000) translate(-32.195181, -53.915828) "></path>
                    </g>
                    <g id="icon-writing" transform="translate(97.000000, 188.000000)">
                        <path d="M4.95774538,11.3296125 C13.2430221,4.90116236 22.124738,4.90116236 31.6028931,11.3296125 C41.0810483,17.7580626 50.3576229,16.9545063 59.4326169,8.91894368" id="Path-3" transform="translate(32.195181, 11.061760) rotate(-5.000000) translate(-32.195181, -11.061760) "></path>
                        <path d="M4.95774538,32.7566462 C13.2430221,26.3281961 22.124738,26.3281961 31.6028931,32.7566462 C41.0810483,39.1850963 50.3576229,38.3815401 59.4326169,30.3459774" id="Path-3" transform="translate(32.195181, 32.488794) rotate(-5.000000) translate(-32.195181, -32.488794) "></path>
                        <path d="M4.95774538,54.18368 C13.2430221,47.7552299 22.124738,47.7552299 31.6028931,54.18368 C41.0810483,60.6121301 50.3576229,59.8085738 59.4326169,51.7730112" id="Path-3" transform="translate(32.195181, 53.915828) rotate(-5.000000) translate(-32.195181, -53.915828) "></path>
                    </g>
                    <g id="icon-writing" transform="translate(191.000000, 188.000000)">
                        <path d="M4.95774538,11.3296125 C13.2430221,4.90116236 22.124738,4.90116236 31.6028931,11.3296125 C41.0810483,17.7580626 50.3576229,16.9545063 59.4326169,8.91894368" id="Path-3" transform="translate(32.195181, 11.061760) rotate(-5.000000) translate(-32.195181, -11.061760) "></path>
                        <path d="M4.95774538,32.7566462 C13.2430221,26.3281961 22.124738,26.3281961 31.6028931,32.7566462 C41.0810483,39.1850963 50.3576229,38.3815401 59.4326169,30.3459774" id="Path-3" transform="translate(32.195181, 32.488794) rotate(-5.000000) translate(-32.195181, -32.488794) "></path>
                        <path d="M4.95774538,54.18368 C13.2430221,47.7552299 22.124738,47.7552299 31.6028931,54.18368 C41.0810483,60.6121301 50.3576229,59.8085738 59.4326169,51.7730112" id="Path-3" transform="translate(32.195181, 53.915828) rotate(-5.000000) translate(-32.195181, -53.915828) "></path>
                    </g>
                    <g id="icon-writing" transform="translate(97.000000, 282.000000)">
                        <path d="M4.95774538,11.3296125 C13.2430221,4.90116236 22.124738,4.90116236 31.6028931,11.3296125 C41.0810483,17.7580626 50.3576229,16.9545063 59.4326169,8.91894368" id="Path-3" transform="translate(32.195181, 11.061760) rotate(-5.000000) translate(-32.195181, -11.061760) "></path>
                        <path d="M4.95774538,32.7566462 C13.2430221,26.3281961 22.124738,26.3281961 31.6028931,32.7566462 C41.0810483,39.1850963 50.3576229,38.3815401 59.4326169,30.3459774" id="Path-3" transform="translate(32.195181, 32.488794) rotate(-5.000000) translate(-32.195181, -32.488794) "></path>
                        <path d="M4.95774538,54.18368 C13.2430221,47.7552299 22.124738,47.7552299 31.6028931,54.18368 C41.0810483,60.6121301 50.3576229,59.8085738 59.4326169,51.7730112" id="Path-3" transform="translate(32.195181, 53.915828) rotate(-5.000000) translate(-32.195181, -53.915828) "></path>
                    </g>
                    <g id="icon-writing" transform="translate(0.000000, 282.000000)">
                        <path d="M4.95774538,11.3296125 C13.2430221,4.90116236 22.124738,4.90116236 31.6028931,11.3296125 C41.0810483,17.7580626 50.3576229,16.9545063 59.4326169,8.91894368" id="Path-3" transform="translate(32.195181, 11.061760) rotate(-5.000000) translate(-32.195181, -11.061760) "></path>
                        <path d="M4.95774538,32.7566462 C13.2430221,26.3281961 22.124738,26.3281961 31.6028931,32.7566462 C41.0810483,39.1850963 50.3576229,38.3815401 59.4326169,30.3459774" id="Path-3" transform="translate(32.195181, 32.488794) rotate(-5.000000) translate(-32.195181, -32.488794) "></path>
                        <path d="M4.95774538,54.18368 C13.2430221,47.7552299 22.124738,47.7552299 31.6028931,54.18368 C41.0810483,60.6121301 50.3576229,59.8085738 59.4326169,51.7730112" id="Path-3" transform="translate(32.195181, 53.915828) rotate(-5.000000) translate(-32.195181, -53.915828) "></path>
                    </g>
                    <g id="icon-writing" transform="translate(191.000000, 282.000000)">
                        <path d="M4.95774538,11.3296125 C13.2430221,4.90116236 22.124738,4.90116236 31.6028931,11.3296125 C41.0810483,17.7580626 50.3576229,16.9545063 59.4326169,8.91894368" id="Path-3" transform="translate(32.195181, 11.061760) rotate(-5.000000) translate(-32.195181, -11.061760) "></path>
                        <path d="M4.95774538,32.7566462 C13.2430221,26.3281961 22.124738,26.3281961 31.6028931,32.7566462 C41.0810483,39.1850963 50.3576229,38.3815401 59.4326169,30.3459774" id="Path-3" transform="translate(32.195181, 32.488794) rotate(-5.000000) translate(-32.195181, -32.488794) "></path>
                        <path d="M4.95774538,54.18368 C13.2430221,47.7552299 22.124738,47.7552299 31.6028931,54.18368 C41.0810483,60.6121301 50.3576229,59.8085738 59.4326169,51.7730112" id="Path-3" transform="translate(32.195181, 53.915828) rotate(-5.000000) translate(-32.195181, -53.915828) "></path>
                    </g>
                    <g id="icon-writing" transform="translate(285.000000, 376.000000)">
                        <path d="M4.95774538,11.3296125 C13.2430221,4.90116236 22.124738,4.90116236 31.6028931,11.3296125 C41.0810483,17.7580626 50.3576229,16.9545063 59.4326169,8.91894368" id="Path-3" transform="translate(32.195181, 11.061760) rotate(-5.000000) translate(-32.195181, -11.061760) "></path>
                        <path d="M4.95774538,32.7566462 C13.2430221,26.3281961 22.124738,26.3281961 31.6028931,32.7566462 C41.0810483,39.1850963 50.3576229,38.3815401 59.4326169,30.3459774" id="Path-3" transform="translate(32.195181, 32.488794) rotate(-5.000000) translate(-32.195181, -32.488794) "></path>
                        <path d="M4.95774538,54.18368 C13.2430221,47.7552299 22.124738,47.7552299 31.6028931,54.18368 C41.0810483,60.6121301 50.3576229,59.8085738 59.4326169,51.7730112" id="Path-3" transform="translate(32.195181, 53.915828) rotate(-5.000000) translate(-32.195181, -53.915828) "></path>
                    </g>
                    <g id="icon-writing" transform="translate(97.000000, 376.000000)">
                        <path d="M4.95774538,11.3296125 C13.2430221,4.90116236 22.124738,4.90116236 31.6028931,11.3296125 C41.0810483,17.7580626 50.3576229,16.9545063 59.4326169,8.91894368" id="Path-3" transform="translate(32.195181, 11.061760) rotate(-5.000000) translate(-32.195181, -11.061760) "></path>
                        <path d="M4.95774538,32.7566462 C13.2430221,26.3281961 22.124738,26.3281961 31.6028931,32.7566462 C41.0810483,39.1850963 50.3576229,38.3815401 59.4326169,30.3459774" id="Path-3" transform="translate(32.195181, 32.488794) rotate(-5.000000) translate(-32.195181, -32.488794) "></path>
                        <path d="M4.95774538,54.18368 C13.2430221,47.7552299 22.124738,47.7552299 31.6028931,54.18368 C41.0810483,60.6121301 50.3576229,59.8085738 59.4326169,51.7730112" id="Path-3" transform="translate(32.195181, 53.915828) rotate(-5.000000) translate(-32.195181, -53.915828) "></path>
                    </g>
                    <g id="icon-writing" transform="translate(0.000000, 376.000000)">
                        <path d="M4.95774538,11.3296125 C13.2430221,4.90116236 22.124738,4.90116236 31.6028931,11.3296125 C41.0810483,17.7580626 50.3576229,16.9545063 59.4326169,8.91894368" id="Path-3" transform="translate(32.195181, 11.061760) rotate(-5.000000) translate(-32.195181, -11.061760) "></path>
                        <path d="M4.95774538,32.7566462 C13.2430221,26.3281961 22.124738,26.3281961 31.6028931,32.7566462 C41.0810483,39.1850963 50.3576229,38.3815401 59.4326169,30.3459774" id="Path-3" transform="translate(32.195181, 32.488794) rotate(-5.000000) translate(-32.195181, -32.488794) "></path>
                        <path d="M4.95774538,54.18368 C13.2430221,47.7552299 22.124738,47.7552299 31.6028931,54.18368 C41.0810483,60.6121301 50.3576229,59.8085738 59.4326169,51.7730112" id="Path-3" transform="translate(32.195181, 53.915828) rotate(-5.000000) translate(-32.195181, -53.915828) "></path>
                    </g>
                    <g id="icon-writing" transform="translate(191.000000, 376.000000)">
                        <path d="M4.95774538,11.3296125 C13.2430221,4.90116236 22.124738,4.90116236 31.6028931,11.3296125 C41.0810483,17.7580626 50.3576229,16.9545063 59.4326169,8.91894368" id="Path-3" transform="translate(32.195181, 11.061760) rotate(-5.000000) translate(-32.195181, -11.061760) "></path>
                        <path d="M4.95774538,32.7566462 C13.2430221,26.3281961 22.124738,26.3281961 31.6028931,32.7566462 C41.0810483,39.1850963 50.3576229,38.3815401 59.4326169,30.3459774" id="Path-3" transform="translate(32.195181, 32.488794) rotate(-5.000000) translate(-32.195181, -32.488794) "></path>
                        <path d="M4.95774538,54.18368 C13.2430221,47.7552299 22.124738,47.7552299 31.6028931,54.18368 C41.0810483,60.6121301 50.3576229,59.8085738 59.4326169,51.7730112" id="Path-3" transform="translate(32.195181, 53.915828) rotate(-5.000000) translate(-32.195181, -53.915828) "></path>
                    </g>
                    <g id="icon-writing" transform="translate(97.000000, 470.000000)">
                        <path d="M4.95774538,11.3296125 C13.2430221,4.90116236 22.124738,4.90116236 31.6028931,11.3296125 C41.0810483,17.7580626 50.3576229,16.9545063 59.4326169,8.91894368" id="Path-3" transform="translate(32.195181, 11.061760) rotate(-5.000000) translate(-32.195181, -11.061760) "></path>
                        <path d="M4.95774538,32.7566462 C13.2430221,26.3281961 22.124738,26.3281961 31.6028931,32.7566462 C41.0810483,39.1850963 50.3576229,38.3815401 59.4326169,30.3459774" id="Path-3" transform="translate(32.195181, 32.488794) rotate(-5.000000) translate(-32.195181, -32.488794) "></path>
                        <path d="M4.95774538,54.18368 C13.2430221,47.7552299 22.124738,47.7552299 31.6028931,54.18368 C41.0810483,60.6121301 50.3576229,59.8085738 59.4326169,51.7730112" id="Path-3" transform="translate(32.195181, 53.915828) rotate(-5.000000) translate(-32.195181, -53.915828) "></path>
                    </g>
                    <g id="icon-writing" transform="translate(0.000000, 470.000000)">
                        <path d="M4.95774538,11.3296125 C13.2430221,4.90116236 22.124738,4.90116236 31.6028931,11.3296125 C41.0810483,17.7580626 50.3576229,16.9545063 59.4326169,8.91894368" id="Path-3" transform="translate(32.195181, 11.061760) rotate(-5.000000) translate(-32.195181, -11.061760) "></path>
                        <path d="M4.95774538,32.7566462 C13.2430221,26.3281961 22.124738,26.3281961 31.6028931,32.7566462 C41.0810483,39.1850963 50.3576229,38.3815401 59.4326169,30.3459774" id="Path-3" transform="translate(32.195181, 32.488794) rotate(-5.000000) translate(-32.195181, -32.488794) "></path>
                        <path d="M4.95774538,54.18368 C13.2430221,47.7552299 22.124738,47.7552299 31.6028931,54.18368 C41.0810483,60.6121301 50.3576229,59.8085738 59.4326169,51.7730112" id="Path-3" transform="translate(32.195181, 53.915828) rotate(-5.000000) translate(-32.195181, -53.915828) "></path>
                    </g>
                    <g id="icon-writing" transform="translate(191.000000, 470.000000)">
                        <path d="M4.95774538,11.3296125 C13.2430221,4.90116236 22.124738,4.90116236 31.6028931,11.3296125 C41.0810483,17.7580626 50.3576229,16.9545063 59.4326169,8.91894368" id="Path-3" transform="translate(32.195181, 11.061760) rotate(-5.000000) translate(-32.195181, -11.061760) "></path>
                        <path d="M4.95774538,32.7566462 C13.2430221,26.3281961 22.124738,26.3281961 31.6028931,32.7566462 C41.0810483,39.1850963 50.3576229,38.3815401 59.4326169,30.3459774" id="Path-3" transform="translate(32.195181, 32.488794) rotate(-5.000000) translate(-32.195181, -32.488794) "></path>
                        <path d="M4.95774538,54.18368 C13.2430221,47.7552299 22.124738,47.7552299 31.6028931,54.18368 C41.0810483,60.6121301 50.3576229,59.8085738 59.4326169,51.7730112" id="Path-3" transform="translate(32.195181, 53.915828) rotate(-5.000000) translate(-32.195181, -53.915828) "></path>
                    </g>
                    <g id="icon-writing" transform="translate(97.000000, 564.000000)">
                        <path d="M4.95774538,11.3296125 C13.2430221,4.90116236 22.124738,4.90116236 31.6028931,11.3296125 C41.0810483,17.7580626 50.3576229,16.9545063 59.4326169,8.91894368" id="Path-3" transform="translate(32.195181, 11.061760) rotate(-5.000000) translate(-32.195181, -11.061760) "></path>
                        <path d="M4.95774538,32.7566462 C13.2430221,26.3281961 22.124738,26.3281961 31.6028931,32.7566462 C41.0810483,39.1850963 50.3576229,38.3815401 59.4326169,30.3459774" id="Path-3" transform="translate(32.195181, 32.488794) rotate(-5.000000) translate(-32.195181, -32.488794) "></path>
                        <path d="M4.95774538,54.18368 C13.2430221,47.7552299 22.124738,47.7552299 31.6028931,54.18368 C41.0810483,60.6121301 50.3576229,59.8085738 59.4326169,51.7730112" id="Path-3" transform="translate(32.195181, 53.915828) rotate(-5.000000) translate(-32.195181, -53.915828) "></path>
                    </g>
                    <g id="icon-writing" transform="translate(0.000000, 564.000000)">
                        <path d="M4.95774538,11.3296125 C13.2430221,4.90116236 22.124738,4.90116236 31.6028931,11.3296125 C41.0810483,17.7580626 50.3576229,16.9545063 59.4326169,8.91894368" id="Path-3" transform="translate(32.195181, 11.061760) rotate(-5.000000) translate(-32.195181, -11.061760) "></path>
                        <path d="M4.95774538,32.7566462 C13.2430221,26.3281961 22.124738,26.3281961 31.6028931,32.7566462 C41.0810483,39.1850963 50.3576229,38.3815401 59.4326169,30.3459774" id="Path-3" transform="translate(32.195181, 32.488794) rotate(-5.000000) translate(-32.195181, -32.488794) "></path>
                        <path d="M4.95774538,54.18368 C13.2430221,47.7552299 22.124738,47.7552299 31.6028931,54.18368 C41.0810483,60.6121301 50.3576229,59.8085738 59.4326169,51.7730112" id="Path-3" transform="translate(32.195181, 53.915828) rotate(-5.000000) translate(-32.195181, -53.915828) "></path>
                    </g>
                </g>
                <g id="Icons" transform="translate(0.000000, 1009.000000)">
                    <g id="icon-writing" transform="translate(285.000000, 0.000000)">
                        <path d="M4.95774538,11.3296125 C13.2430221,4.90116236 22.124738,4.90116236 31.6028931,11.3296125 C41.0810483,17.7580626 50.3576229,16.9545063 59.4326169,8.91894368" id="Path-3" transform="translate(32.195181, 11.061760) rotate(-5.000000) translate(-32.195181, -11.061760) "></path>
                        <path d="M4.95774538,32.7566462 C13.2430221,26.3281961 22.124738,26.3281961 31.6028931,32.7566462 C41.0810483,39.1850963 50.3576229,38.3815401 59.4326169,30.3459774" id="Path-3" transform="translate(32.195181, 32.488794) rotate(-5.000000) translate(-32.195181, -32.488794) "></path>
                        <path d="M4.95774538,54.18368 C13.2430221,47.7552299 22.124738,47.7552299 31.6028931,54.18368 C41.0810483,60.6121301 50.3576229,59.8085738 59.4326169,51.7730112" id="Path-3" transform="translate(32.195181, 53.915828) rotate(-5.000000) translate(-32.195181, -53.915828) "></path>
                    </g>
                    <g id="icon-writing" transform="translate(379.000000, 0.000000)">
                        <path d="M4.95774538,11.3296125 C13.2430221,4.90116236 22.124738,4.90116236 31.6028931,11.3296125 C41.0810483,17.7580626 50.3576229,16.9545063 59.4326169,8.91894368" id="Path-3" transform="translate(32.195181, 11.061760) rotate(-5.000000) translate(-32.195181, -11.061760) "></path>
                        <path d="M4.95774538,32.7566462 C13.2430221,26.3281961 22.124738,26.3281961 31.6028931,32.7566462 C41.0810483,39.1850963 50.3576229,38.3815401 59.4326169,30.3459774" id="Path-3" transform="translate(32.195181, 32.488794) rotate(-5.000000) translate(-32.195181, -32.488794) "></path>
                        <path d="M4.95774538,54.18368 C13.2430221,47.7552299 22.124738,47.7552299 31.6028931,54.18368 C41.0810483,60.6121301 50.3576229,59.8085738 59.4326169,51.7730112" id="Path-3" transform="translate(32.195181, 53.915828) rotate(-5.000000) translate(-32.195181, -53.915828) "></path>
                    </g>
                    <g id="icon-writing" transform="translate(285.000000, 94.000000)">
                        <path d="M4.95774538,11.3296125 C13.2430221,4.90116236 22.124738,4.90116236 31.6028931,11.3296125 C41.0810483,17.7580626 50.3576229,16.9545063 59.4326169,8.91894368" id="Path-3" transform="translate(32.195181, 11.061760) rotate(-5.000000) translate(-32.195181, -11.061760) "></path>
                        <path d="M4.95774538,32.7566462 C13.2430221,26.3281961 22.124738,26.3281961 31.6028931,32.7566462 C41.0810483,39.1850963 50.3576229,38.3815401 59.4326169,30.3459774" id="Path-3" transform="translate(32.195181, 32.488794) rotate(-5.000000) translate(-32.195181, -32.488794) "></path>
                        <path d="M4.95774538,54.18368 C13.2430221,47.7552299 22.124738,47.7552299 31.6028931,54.18368 C41.0810483,60.6121301 50.3576229,59.8085738 59.4326169,51.7730112" id="Path-3" transform="translate(32.195181, 53.915828) rotate(-5.000000) translate(-32.195181, -53.915828) "></path>
                    </g>
                    <g id="icon-writing" transform="translate(379.000000, 94.000000)">
                        <path d="M4.95774538,11.3296125 C13.2430221,4.90116236 22.124738,4.90116236 31.6028931,11.3296125 C41.0810483,17.7580626 50.3576229,16.9545063 59.4326169,8.91894368" id="Path-3" transform="translate(32.195181, 11.061760) rotate(-5.000000) translate(-32.195181, -11.061760) "></path>
                        <path d="M4.95774538,32.7566462 C13.2430221,26.3281961 22.124738,26.3281961 31.6028931,32.7566462 C41.0810483,39.1850963 50.3576229,38.3815401 59.4326169,30.3459774" id="Path-3" transform="translate(32.195181, 32.488794) rotate(-5.000000) translate(-32.195181, -32.488794) "></path>
                        <path d="M4.95774538,54.18368 C13.2430221,47.7552299 22.124738,47.7552299 31.6028931,54.18368 C41.0810483,60.6121301 50.3576229,59.8085738 59.4326169,51.7730112" id="Path-3" transform="translate(32.195181, 53.915828) rotate(-5.000000) translate(-32.195181, -53.915828) "></path>
                    </g>
                    <g id="icon-writing" transform="translate(285.000000, 188.000000)">
                        <path d="M4.95774538,11.3296125 C13.2430221,4.90116236 22.124738,4.90116236 31.6028931,11.3296125 C41.0810483,17.7580626 50.3576229,16.9545063 59.4326169,8.91894368" id="Path-3" transform="translate(32.195181, 11.061760) rotate(-5.000000) translate(-32.195181, -11.061760) "></path>
                        <path d="M4.95774538,32.7566462 C13.2430221,26.3281961 22.124738,26.3281961 31.6028931,32.7566462 C41.0810483,39.1850963 50.3576229,38.3815401 59.4326169,30.3459774" id="Path-3" transform="translate(32.195181, 32.488794) rotate(-5.000000) translate(-32.195181, -32.488794) "></path>
                        <path d="M4.95774538,54.18368 C13.2430221,47.7552299 22.124738,47.7552299 31.6028931,54.18368 C41.0810483,60.6121301 50.3576229,59.8085738 59.4326169,51.7730112" id="Path-3" transform="translate(32.195181, 53.915828) rotate(-5.000000) translate(-32.195181, -53.915828) "></path>
                    </g>
                    <g id="icon-writing" transform="translate(379.000000, 188.000000)">
                        <path d="M4.95774538,11.3296125 C13.2430221,4.90116236 22.124738,4.90116236 31.6028931,11.3296125 C41.0810483,17.7580626 50.3576229,16.9545063 59.4326169,8.91894368" id="Path-3" transform="translate(32.195181, 11.061760) rotate(-5.000000) translate(-32.195181, -11.061760) "></path>
                        <path d="M4.95774538,32.7566462 C13.2430221,26.3281961 22.124738,26.3281961 31.6028931,32.7566462 C41.0810483,39.1850963 50.3576229,38.3815401 59.4326169,30.3459774" id="Path-3" transform="translate(32.195181, 32.488794) rotate(-5.000000) translate(-32.195181, -32.488794) "></path>
                        <path d="M4.95774538,54.18368 C13.2430221,47.7552299 22.124738,47.7552299 31.6028931,54.18368 C41.0810483,60.6121301 50.3576229,59.8085738 59.4326169,51.7730112" id="Path-3" transform="translate(32.195181, 53.915828) rotate(-5.000000) translate(-32.195181, -53.915828) "></path>
                    </g>
                    <g id="icon-writing" transform="translate(285.000000, 282.000000)">
                        <path d="M4.95774538,11.3296125 C13.2430221,4.90116236 22.124738,4.90116236 31.6028931,11.3296125 C41.0810483,17.7580626 50.3576229,16.9545063 59.4326169,8.91894368" id="Path-3" transform="translate(32.195181, 11.061760) rotate(-5.000000) translate(-32.195181, -11.061760) "></path>
                        <path d="M4.95774538,32.7566462 C13.2430221,26.3281961 22.124738,26.3281961 31.6028931,32.7566462 C41.0810483,39.1850963 50.3576229,38.3815401 59.4326169,30.3459774" id="Path-3" transform="translate(32.195181, 32.488794) rotate(-5.000000) translate(-32.195181, -32.488794) "></path>
                        <path d="M4.95774538,54.18368 C13.2430221,47.7552299 22.124738,47.7552299 31.6028931,54.18368 C41.0810483,60.6121301 50.3576229,59.8085738 59.4326169,51.7730112" id="Path-3" transform="translate(32.195181, 53.915828) rotate(-5.000000) translate(-32.195181, -53.915828) "></path>
                    </g>
                    <g id="icon-writing" transform="translate(379.000000, 282.000000)">
                        <path d="M4.95774538,11.3296125 C13.2430221,4.90116236 22.124738,4.90116236 31.6028931,11.3296125 C41.0810483,17.7580626 50.3576229,16.9545063 59.4326169,8.91894368" id="Path-3" transform="translate(32.195181, 11.061760) rotate(-5.000000) translate(-32.195181, -11.061760) "></path>
                        <path d="M4.95774538,32.7566462 C13.2430221,26.3281961 22.124738,26.3281961 31.6028931,32.7566462 C41.0810483,39.1850963 50.3576229,38.3815401 59.4326169,30.3459774" id="Path-3" transform="translate(32.195181, 32.488794) rotate(-5.000000) translate(-32.195181, -32.488794) "></path>
                        <path d="M4.95774538,54.18368 C13.2430221,47.7552299 22.124738,47.7552299 31.6028931,54.18368 C41.0810483,60.6121301 50.3576229,59.8085738 59.4326169,51.7730112" id="Path-3" transform="translate(32.195181, 53.915828) rotate(-5.000000) translate(-32.195181, -53.915828) "></path>
                    </g>
                    <g id="icon-writing" transform="translate(191.000000, 94.000000)">
                        <path d="M4.95774538,11.3296125 C13.2430221,4.90116236 22.124738,4.90116236 31.6028931,11.3296125 C41.0810483,17.7580626 50.3576229,16.9545063 59.4326169,8.91894368" id="Path-3" transform="translate(32.195181, 11.061760) rotate(-5.000000) translate(-32.195181, -11.061760) "></path>
                        <path d="M4.95774538,32.7566462 C13.2430221,26.3281961 22.124738,26.3281961 31.6028931,32.7566462 C41.0810483,39.1850963 50.3576229,38.3815401 59.4326169,30.3459774" id="Path-3" transform="translate(32.195181, 32.488794) rotate(-5.000000) translate(-32.195181, -32.488794) "></path>
                        <path d="M4.95774538,54.18368 C13.2430221,47.7552299 22.124738,47.7552299 31.6028931,54.18368 C41.0810483,60.6121301 50.3576229,59.8085738 59.4326169,51.7730112" id="Path-3" transform="translate(32.195181, 53.915828) rotate(-5.000000) translate(-32.195181, -53.915828) "></path>
                    </g>
                    <g id="icon-writing" transform="translate(97.000000, 188.000000)">
                        <path d="M4.95774538,11.3296125 C13.2430221,4.90116236 22.124738,4.90116236 31.6028931,11.3296125 C41.0810483,17.7580626 50.3576229,16.9545063 59.4326169,8.91894368" id="Path-3" transform="translate(32.195181, 11.061760) rotate(-5.000000) translate(-32.195181, -11.061760) "></path>
                        <path d="M4.95774538,32.7566462 C13.2430221,26.3281961 22.124738,26.3281961 31.6028931,32.7566462 C41.0810483,39.1850963 50.3576229,38.3815401 59.4326169,30.3459774" id="Path-3" transform="translate(32.195181, 32.488794) rotate(-5.000000) translate(-32.195181, -32.488794) "></path>
                        <path d="M4.95774538,54.18368 C13.2430221,47.7552299 22.124738,47.7552299 31.6028931,54.18368 C41.0810483,60.6121301 50.3576229,59.8085738 59.4326169,51.7730112" id="Path-3" transform="translate(32.195181, 53.915828) rotate(-5.000000) translate(-32.195181, -53.915828) "></path>
                    </g>
                    <g id="icon-writing" transform="translate(191.000000, 188.000000)">
                        <path d="M4.95774538,11.3296125 C13.2430221,4.90116236 22.124738,4.90116236 31.6028931,11.3296125 C41.0810483,17.7580626 50.3576229,16.9545063 59.4326169,8.91894368" id="Path-3" transform="translate(32.195181, 11.061760) rotate(-5.000000) translate(-32.195181, -11.061760) "></path>
                        <path d="M4.95774538,32.7566462 C13.2430221,26.3281961 22.124738,26.3281961 31.6028931,32.7566462 C41.0810483,39.1850963 50.3576229,38.3815401 59.4326169,30.3459774" id="Path-3" transform="translate(32.195181, 32.488794) rotate(-5.000000) translate(-32.195181, -32.488794) "></path>
                        <path d="M4.95774538,54.18368 C13.2430221,47.7552299 22.124738,47.7552299 31.6028931,54.18368 C41.0810483,60.6121301 50.3576229,59.8085738 59.4326169,51.7730112" id="Path-3" transform="translate(32.195181, 53.915828) rotate(-5.000000) translate(-32.195181, -53.915828) "></path>
                    </g>
                    <g id="icon-writing" transform="translate(97.000000, 282.000000)">
                        <path d="M4.95774538,11.3296125 C13.2430221,4.90116236 22.124738,4.90116236 31.6028931,11.3296125 C41.0810483,17.7580626 50.3576229,16.9545063 59.4326169,8.91894368" id="Path-3" transform="translate(32.195181, 11.061760) rotate(-5.000000) translate(-32.195181, -11.061760) "></path>
                        <path d="M4.95774538,32.7566462 C13.2430221,26.3281961 22.124738,26.3281961 31.6028931,32.7566462 C41.0810483,39.1850963 50.3576229,38.3815401 59.4326169,30.3459774" id="Path-3" transform="translate(32.195181, 32.488794) rotate(-5.000000) translate(-32.195181, -32.488794) "></path>
                        <path d="M4.95774538,54.18368 C13.2430221,47.7552299 22.124738,47.7552299 31.6028931,54.18368 C41.0810483,60.6121301 50.3576229,59.8085738 59.4326169,51.7730112" id="Path-3" transform="translate(32.195181, 53.915828) rotate(-5.000000) translate(-32.195181, -53.915828) "></path>
                    </g>
                    <g id="icon-writing" transform="translate(0.000000, 282.000000)">
                        <path d="M4.95774538,11.3296125 C13.2430221,4.90116236 22.124738,4.90116236 31.6028931,11.3296125 C41.0810483,17.7580626 50.3576229,16.9545063 59.4326169,8.91894368" id="Path-3" transform="translate(32.195181, 11.061760) rotate(-5.000000) translate(-32.195181, -11.061760) "></path>
                        <path d="M4.95774538,32.7566462 C13.2430221,26.3281961 22.124738,26.3281961 31.6028931,32.7566462 C41.0810483,39.1850963 50.3576229,38.3815401 59.4326169,30.3459774" id="Path-3" transform="translate(32.195181, 32.488794) rotate(-5.000000) translate(-32.195181, -32.488794) "></path>
                        <path d="M4.95774538,54.18368 C13.2430221,47.7552299 22.124738,47.7552299 31.6028931,54.18368 C41.0810483,60.6121301 50.3576229,59.8085738 59.4326169,51.7730112" id="Path-3" transform="translate(32.195181, 53.915828) rotate(-5.000000) translate(-32.195181, -53.915828) "></path>
                    </g>
                    <g id="icon-writing" transform="translate(191.000000, 282.000000)">
                        <path d="M4.95774538,11.3296125 C13.2430221,4.90116236 22.124738,4.90116236 31.6028931,11.3296125 C41.0810483,17.7580626 50.3576229,16.9545063 59.4326169,8.91894368" id="Path-3" transform="translate(32.195181, 11.061760) rotate(-5.000000) translate(-32.195181, -11.061760) "></path>
                        <path d="M4.95774538,32.7566462 C13.2430221,26.3281961 22.124738,26.3281961 31.6028931,32.7566462 C41.0810483,39.1850963 50.3576229,38.3815401 59.4326169,30.3459774" id="Path-3" transform="translate(32.195181, 32.488794) rotate(-5.000000) translate(-32.195181, -32.488794) "></path>
                        <path d="M4.95774538,54.18368 C13.2430221,47.7552299 22.124738,47.7552299 31.6028931,54.18368 C41.0810483,60.6121301 50.3576229,59.8085738 59.4326169,51.7730112" id="Path-3" transform="translate(32.195181, 53.915828) rotate(-5.000000) translate(-32.195181, -53.915828) "></path>
                    </g>
                    <g id="icon-writing" transform="translate(285.000000, 376.000000)">
                        <path d="M4.95774538,11.3296125 C13.2430221,4.90116236 22.124738,4.90116236 31.6028931,11.3296125 C41.0810483,17.7580626 50.3576229,16.9545063 59.4326169,8.91894368" id="Path-3" transform="translate(32.195181, 11.061760) rotate(-5.000000) translate(-32.195181, -11.061760) "></path>
                        <path d="M4.95774538,32.7566462 C13.2430221,26.3281961 22.124738,26.3281961 31.6028931,32.7566462 C41.0810483,39.1850963 50.3576229,38.3815401 59.4326169,30.3459774" id="Path-3" transform="translate(32.195181, 32.488794) rotate(-5.000000) translate(-32.195181, -32.488794) "></path>
                        <path d="M4.95774538,54.18368 C13.2430221,47.7552299 22.124738,47.7552299 31.6028931,54.18368 C41.0810483,60.6121301 50.3576229,59.8085738 59.4326169,51.7730112" id="Path-3" transform="translate(32.195181, 53.915828) rotate(-5.000000) translate(-32.195181, -53.915828) "></path>
                    </g>
                    <g id="icon-writing" transform="translate(97.000000, 376.000000)">
                        <path d="M4.95774538,11.3296125 C13.2430221,4.90116236 22.124738,4.90116236 31.6028931,11.3296125 C41.0810483,17.7580626 50.3576229,16.9545063 59.4326169,8.91894368" id="Path-3" transform="translate(32.195181, 11.061760) rotate(-5.000000) translate(-32.195181, -11.061760) "></path>
                        <path d="M4.95774538,32.7566462 C13.2430221,26.3281961 22.124738,26.3281961 31.6028931,32.7566462 C41.0810483,39.1850963 50.3576229,38.3815401 59.4326169,30.3459774" id="Path-3" transform="translate(32.195181, 32.488794) rotate(-5.000000) translate(-32.195181, -32.488794) "></path>
                        <path d="M4.95774538,54.18368 C13.2430221,47.7552299 22.124738,47.7552299 31.6028931,54.18368 C41.0810483,60.6121301 50.3576229,59.8085738 59.4326169,51.7730112" id="Path-3" transform="translate(32.195181, 53.915828) rotate(-5.000000) translate(-32.195181, -53.915828) "></path>
                    </g>
                    <g id="icon-writing" transform="translate(0.000000, 376.000000)">
                        <path d="M4.95774538,11.3296125 C13.2430221,4.90116236 22.124738,4.90116236 31.6028931,11.3296125 C41.0810483,17.7580626 50.3576229,16.9545063 59.4326169,8.91894368" id="Path-3" transform="translate(32.195181, 11.061760) rotate(-5.000000) translate(-32.195181, -11.061760) "></path>
                        <path d="M4.95774538,32.7566462 C13.2430221,26.3281961 22.124738,26.3281961 31.6028931,32.7566462 C41.0810483,39.1850963 50.3576229,38.3815401 59.4326169,30.3459774" id="Path-3" transform="translate(32.195181, 32.488794) rotate(-5.000000) translate(-32.195181, -32.488794) "></path>
                        <path d="M4.95774538,54.18368 C13.2430221,47.7552299 22.124738,47.7552299 31.6028931,54.18368 C41.0810483,60.6121301 50.3576229,59.8085738 59.4326169,51.7730112" id="Path-3" transform="translate(32.195181, 53.915828) rotate(-5.000000) translate(-32.195181, -53.915828) "></path>
                    </g>
                    <g id="icon-writing" transform="translate(191.000000, 376.000000)">
                        <path d="M4.95774538,11.3296125 C13.2430221,4.90116236 22.124738,4.90116236 31.6028931,11.3296125 C41.0810483,17.7580626 50.3576229,16.9545063 59.4326169,8.91894368" id="Path-3" transform="translate(32.195181, 11.061760) rotate(-5.000000) translate(-32.195181, -11.061760) "></path>
                        <path d="M4.95774538,32.7566462 C13.2430221,26.3281961 22.124738,26.3281961 31.6028931,32.7566462 C41.0810483,39.1850963 50.3576229,38.3815401 59.4326169,30.3459774" id="Path-3" transform="translate(32.195181, 32.488794) rotate(-5.000000) translate(-32.195181, -32.488794) "></path>
                        <path d="M4.95774538,54.18368 C13.2430221,47.7552299 22.124738,47.7552299 31.6028931,54.18368 C41.0810483,60.6121301 50.3576229,59.8085738 59.4326169,51.7730112" id="Path-3" transform="translate(32.195181, 53.915828) rotate(-5.000000) translate(-32.195181, -53.915828) "></path>
                    </g>
                    <g id="icon-writing" transform="translate(97.000000, 470.000000)">
                        <path d="M4.95774538,11.3296125 C13.2430221,4.90116236 22.124738,4.90116236 31.6028931,11.3296125 C41.0810483,17.7580626 50.3576229,16.9545063 59.4326169,8.91894368" id="Path-3" transform="translate(32.195181, 11.061760) rotate(-5.000000) translate(-32.195181, -11.061760) "></path>
                        <path d="M4.95774538,32.7566462 C13.2430221,26.3281961 22.124738,26.3281961 31.6028931,32.7566462 C41.0810483,39.1850963 50.3576229,38.3815401 59.4326169,30.3459774" id="Path-3" transform="translate(32.195181, 32.488794) rotate(-5.000000) translate(-32.195181, -32.488794) "></path>
                        <path d="M4.95774538,54.18368 C13.2430221,47.7552299 22.124738,47.7552299 31.6028931,54.18368 C41.0810483,60.6121301 50.3576229,59.8085738 59.4326169,51.7730112" id="Path-3" transform="translate(32.195181, 53.915828) rotate(-5.000000) translate(-32.195181, -53.915828) "></path>
                    </g>
                    <g id="icon-writing" transform="translate(0.000000, 470.000000)">
                        <path d="M4.95774538,11.3296125 C13.2430221,4.90116236 22.124738,4.90116236 31.6028931,11.3296125 C41.0810483,17.7580626 50.3576229,16.9545063 59.4326169,8.91894368" id="Path-3" transform="translate(32.195181, 11.061760) rotate(-5.000000) translate(-32.195181, -11.061760) "></path>
                        <path d="M4.95774538,32.7566462 C13.2430221,26.3281961 22.124738,26.3281961 31.6028931,32.7566462 C41.0810483,39.1850963 50.3576229,38.3815401 59.4326169,30.3459774" id="Path-3" transform="translate(32.195181, 32.488794) rotate(-5.000000) translate(-32.195181, -32.488794) "></path>
                        <path d="M4.95774538,54.18368 C13.2430221,47.7552299 22.124738,47.7552299 31.6028931,54.18368 C41.0810483,60.6121301 50.3576229,59.8085738 59.4326169,51.7730112" id="Path-3" transform="translate(32.195181, 53.915828) rotate(-5.000000) translate(-32.195181, -53.915828) "></path>
                    </g>
                    <g id="icon-writing" transform="translate(191.000000, 470.000000)">
                        <path d="M4.95774538,11.3296125 C13.2430221,4.90116236 22.124738,4.90116236 31.6028931,11.3296125 C41.0810483,17.7580626 50.3576229,16.9545063 59.4326169,8.91894368" id="Path-3" transform="translate(32.195181, 11.061760) rotate(-5.000000) translate(-32.195181, -11.061760) "></path>
                        <path d="M4.95774538,32.7566462 C13.2430221,26.3281961 22.124738,26.3281961 31.6028931,32.7566462 C41.0810483,39.1850963 50.3576229,38.3815401 59.4326169,30.3459774" id="Path-3" transform="translate(32.195181, 32.488794) rotate(-5.000000) translate(-32.195181, -32.488794) "></path>
                        <path d="M4.95774538,54.18368 C13.2430221,47.7552299 22.124738,47.7552299 31.6028931,54.18368 C41.0810483,60.6121301 50.3576229,59.8085738 59.4326169,51.7730112" id="Path-3" transform="translate(32.195181, 53.915828) rotate(-5.000000) translate(-32.195181, -53.915828) "></path>
                    </g>
                    <g id="icon-writing" transform="translate(97.000000, 564.000000)">
                        <path d="M4.95774538,11.3296125 C13.2430221,4.90116236 22.124738,4.90116236 31.6028931,11.3296125 C41.0810483,17.7580626 50.3576229,16.9545063 59.4326169,8.91894368" id="Path-3" transform="translate(32.195181, 11.061760) rotate(-5.000000) translate(-32.195181, -11.061760) "></path>
                        <path d="M4.95774538,32.7566462 C13.2430221,26.3281961 22.124738,26.3281961 31.6028931,32.7566462 C41.0810483,39.1850963 50.3576229,38.3815401 59.4326169,30.3459774" id="Path-3" transform="translate(32.195181, 32.488794) rotate(-5.000000) translate(-32.195181, -32.488794) "></path>
                        <path d="M4.95774538,54.18368 C13.2430221,47.7552299 22.124738,47.7552299 31.6028931,54.18368 C41.0810483,60.6121301 50.3576229,59.8085738 59.4326169,51.7730112" id="Path-3" transform="translate(32.195181, 53.915828) rotate(-5.000000) translate(-32.195181, -53.915828) "></path>
                    </g>
                    <g id="icon-writing" transform="translate(0.000000, 564.000000)">
                        <path d="M4.95774538,11.3296125 C13.2430221,4.90116236 22.124738,4.90116236 31.6028931,11.3296125 C41.0810483,17.7580626 50.3576229,16.9545063 59.4326169,8.91894368" id="Path-3" transform="translate(32.195181, 11.061760) rotate(-5.000000) translate(-32.195181, -11.061760) "></path>
                        <path d="M4.95774538,32.7566462 C13.2430221,26.3281961 22.124738,26.3281961 31.6028931,32.7566462 C41.0810483,39.1850963 50.3576229,38.3815401 59.4326169,30.3459774" id="Path-3" transform="translate(32.195181, 32.488794) rotate(-5.000000) translate(-32.195181, -32.488794) "></path>
                        <path d="M4.95774538,54.18368 C13.2430221,47.7552299 22.124738,47.7552299 31.6028931,54.18368 C41.0810483,60.6121301 50.3576229,59.8085738 59.4326169,51.7730112" id="Path-3" transform="translate(32.195181, 53.915828) rotate(-5.000000) translate(-32.195181, -53.915828) "></path>
                    </g>
                </g>
            </g>
        </g>
    </g>
</svg>