
<svg width="790px" height="1637px" viewBox="0 0 790 1637" version="1.1" xmlns="http://www.w3.org/2000/svg" xmlns:xlink="http://www.w3.org/1999/xlink">
    <g id="Welcome" stroke="none" stroke-width="1" fill="none" fill-rule="evenodd" stroke-linecap="square">
        <g id="Desktop" stroke="#787a7f">
            <g id="Blog-Background">
                <g id="Icons" transform="translate(347.000000, 0.000000)">
                    <g id="icon-cross" transform="translate(285.000000, 0.000000)">
                        <g transform="translate(7.000000, 7.000000)" id="Line">
                            <path d="M49.5614035,0.438596491 L0.157446174,49.8425538" stroke-width="10"></path>
                            <path d="M49.5614035,0.438596491 L0.157446174,49.8425538" stroke-width="10" transform="translate(25.000000, 25.000000) scale(-1, 1) translate(-25.000000, -25.000000) "></path>
                        </g>
                    </g>
                    <g id="icon-cross" transform="translate(379.000000, 0.000000)">
                        <g transform="translate(7.000000, 7.000000)" id="Line">
                            <path d="M49.5614035,0.438596491 L0.157446174,49.8425538" stroke-width="10"></path>
                            <path d="M49.5614035,0.438596491 L0.157446174,49.8425538" stroke-width="10" transform="translate(25.000000, 25.000000) scale(-1, 1) translate(-25.000000, -25.000000) "></path>
                        </g>
                    </g>
                    <g id="icon-cross" transform="translate(285.000000, 94.000000)">
                        <g transform="translate(7.000000, 7.000000)" id="Line">
                            <path d="M49.5614035,0.438596491 L0.157446174,49.8425538" stroke-width="10"></path>
                            <path d="M49.5614035,0.438596491 L0.157446174,49.8425538" stroke-width="10" transform="translate(25.000000, 25.000000) scale(-1, 1) translate(-25.000000, -25.000000) "></path>
                        </g>
                    </g>
                    <g id="icon-cross" transform="translate(379.000000, 94.000000)">
                        <g transform="translate(7.000000, 7.000000)" id="Line">
                            <path d="M49.5614035,0.438596491 L0.157446174,49.8425538" stroke-width="10"></path>
                            <path d="M49.5614035,0.438596491 L0.157446174,49.8425538" stroke-width="10" transform="translate(25.000000, 25.000000) scale(-1, 1) translate(-25.000000, -25.000000) "></path>
                        </g>
                    </g>
                    <g id="icon-cross" transform="translate(285.000000, 188.000000)">
                        <g transform="translate(7.000000, 7.000000)" id="Line">
                            <path d="M49.5614035,0.438596491 L0.157446174,49.8425538" stroke-width="10"></path>
                            <path d="M49.5614035,0.438596491 L0.157446174,49.8425538" stroke-width="10" transform="translate(25.000000, 25.000000) scale(-1, 1) translate(-25.000000, -25.000000) "></path>
                        </g>
                    </g>
                    <g id="icon-cross" transform="translate(379.000000, 188.000000)">
                        <g transform="translate(7.000000, 7.000000)" id="Line">
                            <path d="M49.5614035,0.438596491 L0.157446174,49.8425538" stroke-width="10"></path>
                            <path d="M49.5614035,0.438596491 L0.157446174,49.8425538" stroke-width="10" transform="translate(25.000000, 25.000000) scale(-1, 1) translate(-25.000000, -25.000000) "></path>
                        </g>
                    </g>
                    <g id="icon-cross" transform="translate(285.000000, 282.000000)">
                        <g transform="translate(7.000000, 7.000000)" id="Line">
                            <path d="M49.5614035,0.438596491 L0.157446174,49.8425538" stroke-width="10"></path>
                            <path d="M49.5614035,0.438596491 L0.157446174,49.8425538" stroke-width="10" transform="translate(25.000000, 25.000000) scale(-1, 1) translate(-25.000000, -25.000000) "></path>
                        </g>
                    </g>
                    <g id="icon-cross" transform="translate(379.000000, 282.000000)">
                        <g transform="translate(7.000000, 7.000000)" id="Line">
                            <path d="M49.5614035,0.438596491 L0.157446174,49.8425538" stroke-width="10"></path>
                            <path d="M49.5614035,0.438596491 L0.157446174,49.8425538" stroke-width="10" transform="translate(25.000000, 25.000000) scale(-1, 1) translate(-25.000000, -25.000000) "></path>
                        </g>
                    </g>
                    <g id="icon-cross" transform="translate(191.000000, 94.000000)">
                        <g transform="translate(7.000000, 7.000000)" id="Line">
                            <path d="M49.5614035,0.438596491 L0.157446174,49.8425538" stroke-width="10"></path>
                            <path d="M49.5614035,0.438596491 L0.157446174,49.8425538" stroke-width="10" transform="translate(25.000000, 25.000000) scale(-1, 1) translate(-25.000000, -25.000000) "></path>
                        </g>
                    </g>
                    <g id="icon-cross" transform="translate(97.000000, 188.000000)">
                        <g transform="translate(7.000000, 7.000000)" id="Line">
                            <path d="M49.5614035,0.438596491 L0.157446174,49.8425538" stroke-width="10"></path>
                            <path d="M49.5614035,0.438596491 L0.157446174,49.8425538" stroke-width="10" transform="translate(25.000000, 25.000000) scale(-1, 1) translate(-25.000000, -25.000000) "></path>
                        </g>
                    </g>
                    <g id="icon-cross" transform="translate(191.000000, 188.000000)">
                        <g transform="translate(7.000000, 7.000000)" id="Line">
                            <path d="M49.5614035,0.438596491 L0.157446174,49.8425538" stroke-width="10"></path>
                            <path d="M49.5614035,0.438596491 L0.157446174,49.8425538" stroke-width="10" transform="translate(25.000000, 25.000000) scale(-1, 1) translate(-25.000000, -25.000000) "></path>
                        </g>
                    </g>
                    <g id="icon-cross" transform="translate(97.000000, 282.000000)">
                        <g transform="translate(7.000000, 7.000000)" id="Line">
                            <path d="M49.5614035,0.438596491 L0.157446174,49.8425538" stroke-width="10"></path>
                            <path d="M49.5614035,0.438596491 L0.157446174,49.8425538" stroke-width="10" transform="translate(25.000000, 25.000000) scale(-1, 1) translate(-25.000000, -25.000000) "></path>
                        </g>
                    </g>
                    <g id="icon-cross" transform="translate(0.000000, 282.000000)">
                        <g transform="translate(7.000000, 7.000000)" id="Line">
                            <path d="M49.5614035,0.438596491 L0.157446174,49.8425538" stroke-width="10"></path>
                            <path d="M49.5614035,0.438596491 L0.157446174,49.8425538" stroke-width="10" transform="translate(25.000000, 25.000000) scale(-1, 1) translate(-25.000000, -25.000000) "></path>
                        </g>
                    </g>
                    <g id="icon-cross" transform="translate(191.000000, 282.000000)">
                        <g transform="translate(7.000000, 7.000000)" id="Line">
                            <path d="M49.5614035,0.438596491 L0.157446174,49.8425538" stroke-width="10"></path>
                            <path d="M49.5614035,0.438596491 L0.157446174,49.8425538" stroke-width="10" transform="translate(25.000000, 25.000000) scale(-1, 1) translate(-25.000000, -25.000000) "></path>
                        </g>
                    </g>
                    <g id="icon-cross" transform="translate(285.000000, 376.000000)">
                        <g transform="translate(7.000000, 7.000000)" id="Line">
                            <path d="M49.5614035,0.438596491 L0.157446174,49.8425538" stroke-width="10"></path>
                            <path d="M49.5614035,0.438596491 L0.157446174,49.8425538" stroke-width="10" transform="translate(25.000000, 25.000000) scale(-1, 1) translate(-25.000000, -25.000000) "></path>
                        </g>
                    </g>
                    <g id="icon-cross" transform="translate(97.000000, 376.000000)">
                        <g transform="translate(7.000000, 7.000000)" id="Line">
                            <path d="M49.5614035,0.438596491 L0.157446174,49.8425538" stroke-width="10"></path>
                            <path d="M49.5614035,0.438596491 L0.157446174,49.8425538" stroke-width="10" transform="translate(25.000000, 25.000000) scale(-1, 1) translate(-25.000000, -25.000000) "></path>
                        </g>
                    </g>
                    <g id="icon-cross" transform="translate(0.000000, 376.000000)">
                        <g transform="translate(7.000000, 7.000000)" id="Line">
                            <path d="M49.5614035,0.438596491 L0.157446174,49.8425538" stroke-width="10"></path>
                            <path d="M49.5614035,0.438596491 L0.157446174,49.8425538" stroke-width="10" transform="translate(25.000000, 25.000000) scale(-1, 1) translate(-25.000000, -25.000000) "></path>
                        </g>
                    </g>
                    <g id="icon-cross" transform="translate(191.000000, 376.000000)">
                        <g transform="translate(7.000000, 7.000000)" id="Line">
                            <path d="M49.5614035,0.438596491 L0.157446174,49.8425538" stroke-width="10"></path>
                            <path d="M49.5614035,0.438596491 L0.157446174,49.8425538" stroke-width="10" transform="translate(25.000000, 25.000000) scale(-1, 1) translate(-25.000000, -25.000000) "></path>
                        </g>
                    </g>
                    <g id="icon-cross" transform="translate(97.000000, 470.000000)">
                        <g transform="translate(7.000000, 7.000000)" id="Line">
                            <path d="M49.5614035,0.438596491 L0.157446174,49.8425538" stroke-width="10"></path>
                            <path d="M49.5614035,0.438596491 L0.157446174,49.8425538" stroke-width="10" transform="translate(25.000000, 25.000000) scale(-1, 1) translate(-25.000000, -25.000000) "></path>
                        </g>
                    </g>
                    <g id="icon-cross" transform="translate(0.000000, 470.000000)">
                        <g transform="translate(7.000000, 7.000000)" id="Line">
                            <path d="M49.5614035,0.438596491 L0.157446174,49.8425538" stroke-width="10"></path>
                            <path d="M49.5614035,0.438596491 L0.157446174,49.8425538" stroke-width="10" transform="translate(25.000000, 25.000000) scale(-1, 1) translate(-25.000000, -25.000000) "></path>
                        </g>
                    </g>
                    <g id="icon-cross" transform="translate(191.000000, 470.000000)">
                        <g transform="translate(7.000000, 7.000000)" id="Line">
                            <path d="M49.5614035,0.438596491 L0.157446174,49.8425538" stroke-width="10"></path>
                            <path d="M49.5614035,0.438596491 L0.157446174,49.8425538" stroke-width="10" transform="translate(25.000000, 25.000000) scale(-1, 1) translate(-25.000000, -25.000000) "></path>
                        </g>
                    </g>
                    <g id="icon-cross" transform="translate(97.000000, 564.000000)">
                        <g transform="translate(7.000000, 7.000000)" id="Line">
                            <path d="M49.5614035,0.438596491 L0.157446174,49.8425538" stroke-width="10"></path>
                            <path d="M49.5614035,0.438596491 L0.157446174,49.8425538" stroke-width="10" transform="translate(25.000000, 25.000000) scale(-1, 1) translate(-25.000000, -25.000000) "></path>
                        </g>
                    </g>
                    <g id="icon-cross" transform="translate(0.000000, 564.000000)">
                        <g transform="translate(7.000000, 7.000000)" id="Line">
                            <path d="M49.5614035,0.438596491 L0.157446174,49.8425538" stroke-width="10"></path>
                            <path d="M49.5614035,0.438596491 L0.157446174,49.8425538" stroke-width="10" transform="translate(25.000000, 25.000000) scale(-1, 1) translate(-25.000000, -25.000000) "></path>
                        </g>
                    </g>
                </g>
                <g id="Icons" transform="translate(0.000000, 1009.000000)">
                    <g id="icon-cross" transform="translate(285.000000, 0.000000)">
                        <g transform="translate(7.000000, 7.000000)" id="Line">
                            <path d="M49.5614035,0.438596491 L0.157446174,49.8425538" stroke-width="10"></path>
                            <path d="M49.5614035,0.438596491 L0.157446174,49.8425538" stroke-width="10" transform="translate(25.000000, 25.000000) scale(-1, 1) translate(-25.000000, -25.000000) "></path>
                        </g>
                    </g>
                    <g id="icon-cross" transform="translate(379.000000, 0.000000)">
                        <g transform="translate(7.000000, 7.000000)" id="Line">
                            <path d="M49.5614035,0.438596491 L0.157446174,49.8425538" stroke-width="10"></path>
                            <path d="M49.5614035,0.438596491 L0.157446174,49.8425538" stroke-width="10" transform="translate(25.000000, 25.000000) scale(-1, 1) translate(-25.000000, -25.000000) "></path>
                        </g>
                    </g>
                    <g id="icon-cross" transform="translate(285.000000, 94.000000)">
                        <g transform="translate(7.000000, 7.000000)" id="Line">
                            <path d="M49.5614035,0.438596491 L0.157446174,49.8425538" stroke-width="10"></path>
                            <path d="M49.5614035,0.438596491 L0.157446174,49.8425538" stroke-width="10" transform="translate(25.000000, 25.000000) scale(-1, 1) translate(-25.000000, -25.000000) "></path>
                        </g>
                    </g>
                    <g id="icon-cross" transform="translate(379.000000, 94.000000)">
                        <g transform="translate(7.000000, 7.000000)" id="Line">
                            <path d="M49.5614035,0.438596491 L0.157446174,49.8425538" stroke-width="10"></path>
                            <path d="M49.5614035,0.438596491 L0.157446174,49.8425538" stroke-width="10" transform="translate(25.000000, 25.000000) scale(-1, 1) translate(-25.000000, -25.000000) "></path>
                        </g>
                    </g>
                    <g id="icon-cross" transform="translate(285.000000, 188.000000)">
                        <g transform="translate(7.000000, 7.000000)" id="Line">
                            <path d="M49.5614035,0.438596491 L0.157446174,49.8425538" stroke-width="10"></path>
                            <path d="M49.5614035,0.438596491 L0.157446174,49.8425538" stroke-width="10" transform="translate(25.000000, 25.000000) scale(-1, 1) translate(-25.000000, -25.000000) "></path>
                        </g>
                    </g>
                    <g id="icon-cross" transform="translate(379.000000, 188.000000)">
                        <g transform="translate(7.000000, 7.000000)" id="Line">
                            <path d="M49.5614035,0.438596491 L0.157446174,49.8425538" stroke-width="10"></path>
                            <path d="M49.5614035,0.438596491 L0.157446174,49.8425538" stroke-width="10" transform="translate(25.000000, 25.000000) scale(-1, 1) translate(-25.000000, -25.000000) "></path>
                        </g>
                    </g>
                    <g id="icon-cross" transform="translate(285.000000, 282.000000)">
                        <g transform="translate(7.000000, 7.000000)" id="Line">
                            <path d="M49.5614035,0.438596491 L0.157446174,49.8425538" stroke-width="10"></path>
                            <path d="M49.5614035,0.438596491 L0.157446174,49.8425538" stroke-width="10" transform="translate(25.000000, 25.000000) scale(-1, 1) translate(-25.000000, -25.000000) "></path>
                        </g>
                    </g>
                    <g id="icon-cross" transform="translate(379.000000, 282.000000)">
                        <g transform="translate(7.000000, 7.000000)" id="Line">
                            <path d="M49.5614035,0.438596491 L0.157446174,49.8425538" stroke-width="10"></path>
                            <path d="M49.5614035,0.438596491 L0.157446174,49.8425538" stroke-width="10" transform="translate(25.000000, 25.000000) scale(-1, 1) translate(-25.000000, -25.000000) "></path>
                        </g>
                    </g>
                    <g id="icon-cross" transform="translate(191.000000, 94.000000)">
                        <g transform="translate(7.000000, 7.000000)" id="Line">
                            <path d="M49.5614035,0.438596491 L0.157446174,49.8425538" stroke-width="10"></path>
                            <path d="M49.5614035,0.438596491 L0.157446174,49.8425538" stroke-width="10" transform="translate(25.000000, 25.000000) scale(-1, 1) translate(-25.000000, -25.000000) "></path>
                        </g>
                    </g>
                    <g id="icon-cross" transform="translate(97.000000, 188.000000)">
                        <g transform="translate(7.000000, 7.000000)" id="Line">
                            <path d="M49.5614035,0.438596491 L0.157446174,49.8425538" stroke-width="10"></path>
                            <path d="M49.5614035,0.438596491 L0.157446174,49.8425538" stroke-width="10" transform="translate(25.000000, 25.000000) scale(-1, 1) translate(-25.000000, -25.000000) "></path>
                        </g>
                    </g>
                    <g id="icon-cross" transform="translate(191.000000, 188.000000)">
                        <g transform="translate(7.000000, 7.000000)" id="Line">
                            <path d="M49.5614035,0.438596491 L0.157446174,49.8425538" stroke-width="10"></path>
                            <path d="M49.5614035,0.438596491 L0.157446174,49.8425538" stroke-width="10" transform="translate(25.000000, 25.000000) scale(-1, 1) translate(-25.000000, -25.000000) "></path>
                        </g>
                    </g>
                    <g id="icon-cross" transform="translate(97.000000, 282.000000)">
                        <g transform="translate(7.000000, 7.000000)" id="Line">
                            <path d="M49.5614035,0.438596491 L0.157446174,49.8425538" stroke-width="10"></path>
                            <path d="M49.5614035,0.438596491 L0.157446174,49.8425538" stroke-width="10" transform="translate(25.000000, 25.000000) scale(-1, 1) translate(-25.000000, -25.000000) "></path>
                        </g>
                    </g>
                    <g id="icon-cross" transform="translate(0.000000, 282.000000)">
                        <g transform="translate(7.000000, 7.000000)" id="Line">
                            <path d="M49.5614035,0.438596491 L0.157446174,49.8425538" stroke-width="10"></path>
                            <path d="M49.5614035,0.438596491 L0.157446174,49.8425538" stroke-width="10" transform="translate(25.000000, 25.000000) scale(-1, 1) translate(-25.000000, -25.000000) "></path>
                        </g>
                    </g>
                    <g id="icon-cross" transform="translate(191.000000, 282.000000)">
                        <g transform="translate(7.000000, 7.000000)" id="Line">
                            <path d="M49.5614035,0.438596491 L0.157446174,49.8425538" stroke-width="10"></path>
                            <path d="M49.5614035,0.438596491 L0.157446174,49.8425538" stroke-width="10" transform="translate(25.000000, 25.000000) scale(-1, 1) translate(-25.000000, -25.000000) "></path>
                        </g>
                    </g>
                    <g id="icon-cross" transform="translate(285.000000, 376.000000)">
                        <g transform="translate(7.000000, 7.000000)" id="Line">
                            <path d="M49.5614035,0.438596491 L0.157446174,49.8425538" stroke-width="10"></path>
                            <path d="M49.5614035,0.438596491 L0.157446174,49.8425538" stroke-width="10" transform="translate(25.000000, 25.000000) scale(-1, 1) translate(-25.000000, -25.000000) "></path>
                        </g>
                    </g>
                    <g id="icon-cross" transform="translate(97.000000, 376.000000)">
                        <g transform="translate(7.000000, 7.000000)" id="Line">
                            <path d="M49.5614035,0.438596491 L0.157446174,49.8425538" stroke-width="10"></path>
                            <path d="M49.5614035,0.438596491 L0.157446174,49.8425538" stroke-width="10" transform="translate(25.000000, 25.000000) scale(-1, 1) translate(-25.000000, -25.000000) "></path>
                        </g>
                    </g>
                    <g id="icon-cross" transform="translate(0.000000, 376.000000)">
                        <g transform="translate(7.000000, 7.000000)" id="Line">
                            <path d="M49.5614035,0.438596491 L0.157446174,49.8425538" stroke-width="10"></path>
                            <path d="M49.5614035,0.438596491 L0.157446174,49.8425538" stroke-width="10" transform="translate(25.000000, 25.000000) scale(-1, 1) translate(-25.000000, -25.000000) "></path>
                        </g>
                    </g>
                    <g id="icon-cross" transform="translate(191.000000, 376.000000)">
                        <g transform="translate(7.000000, 7.000000)" id="Line">
                            <path d="M49.5614035,0.438596491 L0.157446174,49.8425538" stroke-width="10"></path>
                            <path d="M49.5614035,0.438596491 L0.157446174,49.8425538" stroke-width="10" transform="translate(25.000000, 25.000000) scale(-1, 1) translate(-25.000000, -25.000000) "></path>
                        </g>
                    </g>
                    <g id="icon-cross" transform="translate(97.000000, 470.000000)">
                        <g transform="translate(7.000000, 7.000000)" id="Line">
                            <path d="M49.5614035,0.438596491 L0.157446174,49.8425538" stroke-width="10"></path>
                            <path d="M49.5614035,0.438596491 L0.157446174,49.8425538" stroke-width="10" transform="translate(25.000000, 25.000000) scale(-1, 1) translate(-25.000000, -25.000000) "></path>
                        </g>
                    </g>
                    <g id="icon-cross" transform="translate(0.000000, 470.000000)">
                        <g transform="translate(7.000000, 7.000000)" id="Line">
                            <path d="M49.5614035,0.438596491 L0.157446174,49.8425538" stroke-width="10"></path>
                            <path d="M49.5614035,0.438596491 L0.157446174,49.8425538" stroke-width="10" transform="translate(25.000000, 25.000000) scale(-1, 1) translate(-25.000000, -25.000000) "></path>
                        </g>
                    </g>
                    <g id="icon-cross" transform="translate(191.000000, 470.000000)">
                        <g transform="translate(7.000000, 7.000000)" id="Line">
                            <path d="M49.5614035,0.438596491 L0.157446174,49.8425538" stroke-width="10"></path>
                            <path d="M49.5614035,0.438596491 L0.157446174,49.8425538" stroke-width="10" transform="translate(25.000000, 25.000000) scale(-1, 1) translate(-25.000000, -25.000000) "></path>
                        </g>
                    </g>
                    <g id="icon-cross" transform="translate(97.000000, 564.000000)">
                        <g transform="translate(7.000000, 7.000000)" id="Line">
                            <path d="M49.5614035,0.438596491 L0.157446174,49.8425538" stroke-width="10"></path>
                            <path d="M49.5614035,0.438596491 L0.157446174,49.8425538" stroke-width="10" transform="translate(25.000000, 25.000000) scale(-1, 1) translate(-25.000000, -25.000000) "></path>
                        </g>
                    </g>
                    <g id="icon-cross" transform="translate(0.000000, 564.000000)">
                        <g transform="translate(7.000000, 7.000000)" id="Line">
                            <path d="M49.5614035,0.438596491 L0.157446174,49.8425538" stroke-width="10"></path>
                            <path d="M49.5614035,0.438596491 L0.157446174,49.8425538" stroke-width="10" transform="translate(25.000000, 25.000000) scale(-1, 1) translate(-25.000000, -25.000000) "></path>
                        </g>
                    </g>
                </g>
            </g>
        </g>
    </g>
</svg>