
<svg width="773px" height="1637px" viewBox="0 0 773 1637" version="1.1" xmlns="http://www.w3.org/2000/svg" xmlns:xlink="http://www.w3.org/1999/xlink">
    <g id="Welcome" stroke="none" stroke-width="1" fill="none" fill-rule="evenodd">
        <g id="Desktop" transform="translate(-8.000000, 0.000000)" stroke="#D8D8D8">
            <g id="Portfolio-Background">
                <g id="Icons" transform="translate(347.000000, 0.000000)">
                    <g id="icon-lightbulb" transform="translate(285.000000, 0.000000)">
                        <g transform="translate(13.000000, 5.000000)">
                            <path d="M8.47233852,35.5927009 L8.47233852,39.9015961" id="Line" stroke-width="10" stroke-linecap="square"></path>
                            <path d="M28.4723385,35.5927009 L28.4723385,39.9015961" id="Line" stroke-width="10" stroke-linecap="square"></path>
                            <path d="M26.8995862,35.585015 C32.8948438,32.4723938 37,26.1317181 37,18.8158614 C37,8.42414809 28.7172679,0 18.5,0 C8.28273213,0 0,8.42414809 0,18.8158614 C0,26.4735913 4.49779227,33.0628695 10.9530533,36" id="Oval" stroke-width="10"></path>
                            <path d="M24.5937826,39.8425538 L12.1462,39.8425538" id="Line" stroke-width="10" stroke-linecap="square"></path>
                            <path d="M28,53.8425538 L9.14620002,53.8425538" id="Line" stroke-width="10" stroke-linecap="square"></path>
                        </g>
                    </g>
                    <g id="icon-lightbulb" transform="translate(379.000000, 0.000000)">
                        <g transform="translate(13.000000, 5.000000)">
                            <path d="M8.47233852,35.5927009 L8.47233852,39.9015961" id="Line" stroke-width="10" stroke-linecap="square"></path>
                            <path d="M28.4723385,35.5927009 L28.4723385,39.9015961" id="Line" stroke-width="10" stroke-linecap="square"></path>
                            <path d="M26.8995862,35.585015 C32.8948438,32.4723938 37,26.1317181 37,18.8158614 C37,8.42414809 28.7172679,0 18.5,0 C8.28273213,0 0,8.42414809 0,18.8158614 C0,26.4735913 4.49779227,33.0628695 10.9530533,36" id="Oval" stroke-width="10"></path>
                            <path d="M24.5937826,39.8425538 L12.1462,39.8425538" id="Line" stroke-width="10" stroke-linecap="square"></path>
                            <path d="M28,53.8425538 L9.14620002,53.8425538" id="Line" stroke-width="10" stroke-linecap="square"></path>
                        </g>
                    </g>
                    <g id="icon-lightbulb" transform="translate(285.000000, 94.000000)">
                        <g transform="translate(13.000000, 5.000000)">
                            <path d="M8.47233852,35.5927009 L8.47233852,39.9015961" id="Line" stroke-width="10" stroke-linecap="square"></path>
                            <path d="M28.4723385,35.5927009 L28.4723385,39.9015961" id="Line" stroke-width="10" stroke-linecap="square"></path>
                            <path d="M26.8995862,35.585015 C32.8948438,32.4723938 37,26.1317181 37,18.8158614 C37,8.42414809 28.7172679,0 18.5,0 C8.28273213,0 0,8.42414809 0,18.8158614 C0,26.4735913 4.49779227,33.0628695 10.9530533,36" id="Oval" stroke-width="10"></path>
                            <path d="M24.5937826,39.8425538 L12.1462,39.8425538" id="Line" stroke-width="10" stroke-linecap="square"></path>
                            <path d="M28,53.8425538 L9.14620002,53.8425538" id="Line" stroke-width="10" stroke-linecap="square"></path>
                        </g>
                    </g>
                    <g id="icon-lightbulb" transform="translate(379.000000, 94.000000)">
                        <g transform="translate(13.000000, 5.000000)">
                            <path d="M8.47233852,35.5927009 L8.47233852,39.9015961" id="Line" stroke-width="10" stroke-linecap="square"></path>
                            <path d="M28.4723385,35.5927009 L28.4723385,39.9015961" id="Line" stroke-width="10" stroke-linecap="square"></path>
                            <path d="M26.8995862,35.585015 C32.8948438,32.4723938 37,26.1317181 37,18.8158614 C37,8.42414809 28.7172679,0 18.5,0 C8.28273213,0 0,8.42414809 0,18.8158614 C0,26.4735913 4.49779227,33.0628695 10.9530533,36" id="Oval" stroke-width="10"></path>
                            <path d="M24.5937826,39.8425538 L12.1462,39.8425538" id="Line" stroke-width="10" stroke-linecap="square"></path>
                            <path d="M28,53.8425538 L9.14620002,53.8425538" id="Line" stroke-width="10" stroke-linecap="square"></path>
                        </g>
                    </g>
                    <g id="icon-lightbulb" transform="translate(285.000000, 188.000000)">
                        <g transform="translate(13.000000, 5.000000)">
                            <path d="M8.47233852,35.5927009 L8.47233852,39.9015961" id="Line" stroke-width="10" stroke-linecap="square"></path>
                            <path d="M28.4723385,35.5927009 L28.4723385,39.9015961" id="Line" stroke-width="10" stroke-linecap="square"></path>
                            <path d="M26.8995862,35.585015 C32.8948438,32.4723938 37,26.1317181 37,18.8158614 C37,8.42414809 28.7172679,0 18.5,0 C8.28273213,0 0,8.42414809 0,18.8158614 C0,26.4735913 4.49779227,33.0628695 10.9530533,36" id="Oval" stroke-width="10"></path>
                            <path d="M24.5937826,39.8425538 L12.1462,39.8425538" id="Line" stroke-width="10" stroke-linecap="square"></path>
                            <path d="M28,53.8425538 L9.14620002,53.8425538" id="Line" stroke-width="10" stroke-linecap="square"></path>
                        </g>
                    </g>
                    <g id="icon-lightbulb" transform="translate(379.000000, 188.000000)">
                        <g transform="translate(13.000000, 5.000000)">
                            <path d="M8.47233852,35.5927009 L8.47233852,39.9015961" id="Line" stroke-width="10" stroke-linecap="square"></path>
                            <path d="M28.4723385,35.5927009 L28.4723385,39.9015961" id="Line" stroke-width="10" stroke-linecap="square"></path>
                            <path d="M26.8995862,35.585015 C32.8948438,32.4723938 37,26.1317181 37,18.8158614 C37,8.42414809 28.7172679,0 18.5,0 C8.28273213,0 0,8.42414809 0,18.8158614 C0,26.4735913 4.49779227,33.0628695 10.9530533,36" id="Oval" stroke-width="10"></path>
                            <path d="M24.5937826,39.8425538 L12.1462,39.8425538" id="Line" stroke-width="10" stroke-linecap="square"></path>
                            <path d="M28,53.8425538 L9.14620002,53.8425538" id="Line" stroke-width="10" stroke-linecap="square"></path>
                        </g>
                    </g>
                    <g id="icon-lightbulb" transform="translate(285.000000, 282.000000)">
                        <g transform="translate(13.000000, 5.000000)">
                            <path d="M8.47233852,35.5927009 L8.47233852,39.9015961" id="Line" stroke-width="10" stroke-linecap="square"></path>
                            <path d="M28.4723385,35.5927009 L28.4723385,39.9015961" id="Line" stroke-width="10" stroke-linecap="square"></path>
                            <path d="M26.8995862,35.585015 C32.8948438,32.4723938 37,26.1317181 37,18.8158614 C37,8.42414809 28.7172679,0 18.5,0 C8.28273213,0 0,8.42414809 0,18.8158614 C0,26.4735913 4.49779227,33.0628695 10.9530533,36" id="Oval" stroke-width="10"></path>
                            <path d="M24.5937826,39.8425538 L12.1462,39.8425538" id="Line" stroke-width="10" stroke-linecap="square"></path>
                            <path d="M28,53.8425538 L9.14620002,53.8425538" id="Line" stroke-width="10" stroke-linecap="square"></path>
                        </g>
                    </g>
                    <g id="icon-lightbulb" transform="translate(379.000000, 282.000000)">
                        <g transform="translate(13.000000, 5.000000)">
                            <path d="M8.47233852,35.5927009 L8.47233852,39.9015961" id="Line" stroke-width="10" stroke-linecap="square"></path>
                            <path d="M28.4723385,35.5927009 L28.4723385,39.9015961" id="Line" stroke-width="10" stroke-linecap="square"></path>
                            <path d="M26.8995862,35.585015 C32.8948438,32.4723938 37,26.1317181 37,18.8158614 C37,8.42414809 28.7172679,0 18.5,0 C8.28273213,0 0,8.42414809 0,18.8158614 C0,26.4735913 4.49779227,33.0628695 10.9530533,36" id="Oval" stroke-width="10"></path>
                            <path d="M24.5937826,39.8425538 L12.1462,39.8425538" id="Line" stroke-width="10" stroke-linecap="square"></path>
                            <path d="M28,53.8425538 L9.14620002,53.8425538" id="Line" stroke-width="10" stroke-linecap="square"></path>
                        </g>
                    </g>
                    <g id="icon-lightbulb" transform="translate(191.000000, 94.000000)">
                        <g transform="translate(13.000000, 5.000000)">
                            <path d="M8.47233852,35.5927009 L8.47233852,39.9015961" id="Line" stroke-width="10" stroke-linecap="square"></path>
                            <path d="M28.4723385,35.5927009 L28.4723385,39.9015961" id="Line" stroke-width="10" stroke-linecap="square"></path>
                            <path d="M26.8995862,35.585015 C32.8948438,32.4723938 37,26.1317181 37,18.8158614 C37,8.42414809 28.7172679,0 18.5,0 C8.28273213,0 0,8.42414809 0,18.8158614 C0,26.4735913 4.49779227,33.0628695 10.9530533,36" id="Oval" stroke-width="10"></path>
                            <path d="M24.5937826,39.8425538 L12.1462,39.8425538" id="Line" stroke-width="10" stroke-linecap="square"></path>
                            <path d="M28,53.8425538 L9.14620002,53.8425538" id="Line" stroke-width="10" stroke-linecap="square"></path>
                        </g>
                    </g>
                    <g id="icon-lightbulb" transform="translate(97.000000, 188.000000)">
                        <g transform="translate(13.000000, 5.000000)">
                            <path d="M8.47233852,35.5927009 L8.47233852,39.9015961" id="Line" stroke-width="10" stroke-linecap="square"></path>
                            <path d="M28.4723385,35.5927009 L28.4723385,39.9015961" id="Line" stroke-width="10" stroke-linecap="square"></path>
                            <path d="M26.8995862,35.585015 C32.8948438,32.4723938 37,26.1317181 37,18.8158614 C37,8.42414809 28.7172679,0 18.5,0 C8.28273213,0 0,8.42414809 0,18.8158614 C0,26.4735913 4.49779227,33.0628695 10.9530533,36" id="Oval" stroke-width="10"></path>
                            <path d="M24.5937826,39.8425538 L12.1462,39.8425538" id="Line" stroke-width="10" stroke-linecap="square"></path>
                            <path d="M28,53.8425538 L9.14620002,53.8425538" id="Line" stroke-width="10" stroke-linecap="square"></path>
                        </g>
                    </g>
                    <g id="icon-lightbulb" transform="translate(191.000000, 188.000000)">
                        <g transform="translate(13.000000, 5.000000)">
                            <path d="M8.47233852,35.5927009 L8.47233852,39.9015961" id="Line" stroke-width="10" stroke-linecap="square"></path>
                            <path d="M28.4723385,35.5927009 L28.4723385,39.9015961" id="Line" stroke-width="10" stroke-linecap="square"></path>
                            <path d="M26.8995862,35.585015 C32.8948438,32.4723938 37,26.1317181 37,18.8158614 C37,8.42414809 28.7172679,0 18.5,0 C8.28273213,0 0,8.42414809 0,18.8158614 C0,26.4735913 4.49779227,33.0628695 10.9530533,36" id="Oval" stroke-width="10"></path>
                            <path d="M24.5937826,39.8425538 L12.1462,39.8425538" id="Line" stroke-width="10" stroke-linecap="square"></path>
                            <path d="M28,53.8425538 L9.14620002,53.8425538" id="Line" stroke-width="10" stroke-linecap="square"></path>
                        </g>
                    </g>
                    <g id="icon-lightbulb" transform="translate(97.000000, 282.000000)">
                        <g transform="translate(13.000000, 5.000000)">
                            <path d="M8.47233852,35.5927009 L8.47233852,39.9015961" id="Line" stroke-width="10" stroke-linecap="square"></path>
                            <path d="M28.4723385,35.5927009 L28.4723385,39.9015961" id="Line" stroke-width="10" stroke-linecap="square"></path>
                            <path d="M26.8995862,35.585015 C32.8948438,32.4723938 37,26.1317181 37,18.8158614 C37,8.42414809 28.7172679,0 18.5,0 C8.28273213,0 0,8.42414809 0,18.8158614 C0,26.4735913 4.49779227,33.0628695 10.9530533,36" id="Oval" stroke-width="10"></path>
                            <path d="M24.5937826,39.8425538 L12.1462,39.8425538" id="Line" stroke-width="10" stroke-linecap="square"></path>
                            <path d="M28,53.8425538 L9.14620002,53.8425538" id="Line" stroke-width="10" stroke-linecap="square"></path>
                        </g>
                    </g>
                    <g id="icon-lightbulb" transform="translate(0.000000, 282.000000)">
                        <g transform="translate(13.000000, 5.000000)">
                            <path d="M8.47233852,35.5927009 L8.47233852,39.9015961" id="Line" stroke-width="10" stroke-linecap="square"></path>
                            <path d="M28.4723385,35.5927009 L28.4723385,39.9015961" id="Line" stroke-width="10" stroke-linecap="square"></path>
                            <path d="M26.8995862,35.585015 C32.8948438,32.4723938 37,26.1317181 37,18.8158614 C37,8.42414809 28.7172679,0 18.5,0 C8.28273213,0 0,8.42414809 0,18.8158614 C0,26.4735913 4.49779227,33.0628695 10.9530533,36" id="Oval" stroke-width="10"></path>
                            <path d="M24.5937826,39.8425538 L12.1462,39.8425538" id="Line" stroke-width="10" stroke-linecap="square"></path>
                            <path d="M28,53.8425538 L9.14620002,53.8425538" id="Line" stroke-width="10" stroke-linecap="square"></path>
                        </g>
                    </g>
                    <g id="icon-lightbulb" transform="translate(191.000000, 282.000000)">
                        <g transform="translate(13.000000, 5.000000)">
                            <path d="M8.47233852,35.5927009 L8.47233852,39.9015961" id="Line" stroke-width="10" stroke-linecap="square"></path>
                            <path d="M28.4723385,35.5927009 L28.4723385,39.9015961" id="Line" stroke-width="10" stroke-linecap="square"></path>
                            <path d="M26.8995862,35.585015 C32.8948438,32.4723938 37,26.1317181 37,18.8158614 C37,8.42414809 28.7172679,0 18.5,0 C8.28273213,0 0,8.42414809 0,18.8158614 C0,26.4735913 4.49779227,33.0628695 10.9530533,36" id="Oval" stroke-width="10"></path>
                            <path d="M24.5937826,39.8425538 L12.1462,39.8425538" id="Line" stroke-width="10" stroke-linecap="square"></path>
                            <path d="M28,53.8425538 L9.14620002,53.8425538" id="Line" stroke-width="10" stroke-linecap="square"></path>
                        </g>
                    </g>
                    <g id="icon-lightbulb" transform="translate(285.000000, 376.000000)">
                        <g transform="translate(13.000000, 5.000000)">
                            <path d="M8.47233852,35.5927009 L8.47233852,39.9015961" id="Line" stroke-width="10" stroke-linecap="square"></path>
                            <path d="M28.4723385,35.5927009 L28.4723385,39.9015961" id="Line" stroke-width="10" stroke-linecap="square"></path>
                            <path d="M26.8995862,35.585015 C32.8948438,32.4723938 37,26.1317181 37,18.8158614 C37,8.42414809 28.7172679,0 18.5,0 C8.28273213,0 0,8.42414809 0,18.8158614 C0,26.4735913 4.49779227,33.0628695 10.9530533,36" id="Oval" stroke-width="10"></path>
                            <path d="M24.5937826,39.8425538 L12.1462,39.8425538" id="Line" stroke-width="10" stroke-linecap="square"></path>
                            <path d="M28,53.8425538 L9.14620002,53.8425538" id="Line" stroke-width="10" stroke-linecap="square"></path>
                        </g>
                    </g>
                    <g id="icon-lightbulb" transform="translate(97.000000, 376.000000)">
                        <g transform="translate(13.000000, 5.000000)">
                            <path d="M8.47233852,35.5927009 L8.47233852,39.9015961" id="Line" stroke-width="10" stroke-linecap="square"></path>
                            <path d="M28.4723385,35.5927009 L28.4723385,39.9015961" id="Line" stroke-width="10" stroke-linecap="square"></path>
                            <path d="M26.8995862,35.585015 C32.8948438,32.4723938 37,26.1317181 37,18.8158614 C37,8.42414809 28.7172679,0 18.5,0 C8.28273213,0 0,8.42414809 0,18.8158614 C0,26.4735913 4.49779227,33.0628695 10.9530533,36" id="Oval" stroke-width="10"></path>
                            <path d="M24.5937826,39.8425538 L12.1462,39.8425538" id="Line" stroke-width="10" stroke-linecap="square"></path>
                            <path d="M28,53.8425538 L9.14620002,53.8425538" id="Line" stroke-width="10" stroke-linecap="square"></path>
                        </g>
                    </g>
                    <g id="icon-lightbulb" transform="translate(0.000000, 376.000000)">
                        <g transform="translate(13.000000, 5.000000)">
                            <path d="M8.47233852,35.5927009 L8.47233852,39.9015961" id="Line" stroke-width="10" stroke-linecap="square"></path>
                            <path d="M28.4723385,35.5927009 L28.4723385,39.9015961" id="Line" stroke-width="10" stroke-linecap="square"></path>
                            <path d="M26.8995862,35.585015 C32.8948438,32.4723938 37,26.1317181 37,18.8158614 C37,8.42414809 28.7172679,0 18.5,0 C8.28273213,0 0,8.42414809 0,18.8158614 C0,26.4735913 4.49779227,33.0628695 10.9530533,36" id="Oval" stroke-width="10"></path>
                            <path d="M24.5937826,39.8425538 L12.1462,39.8425538" id="Line" stroke-width="10" stroke-linecap="square"></path>
                            <path d="M28,53.8425538 L9.14620002,53.8425538" id="Line" stroke-width="10" stroke-linecap="square"></path>
                        </g>
                    </g>
                    <g id="icon-lightbulb" transform="translate(191.000000, 376.000000)">
                        <g transform="translate(13.000000, 5.000000)">
                            <path d="M8.47233852,35.5927009 L8.47233852,39.9015961" id="Line" stroke-width="10" stroke-linecap="square"></path>
                            <path d="M28.4723385,35.5927009 L28.4723385,39.9015961" id="Line" stroke-width="10" stroke-linecap="square"></path>
                            <path d="M26.8995862,35.585015 C32.8948438,32.4723938 37,26.1317181 37,18.8158614 C37,8.42414809 28.7172679,0 18.5,0 C8.28273213,0 0,8.42414809 0,18.8158614 C0,26.4735913 4.49779227,33.0628695 10.9530533,36" id="Oval" stroke-width="10"></path>
                            <path d="M24.5937826,39.8425538 L12.1462,39.8425538" id="Line" stroke-width="10" stroke-linecap="square"></path>
                            <path d="M28,53.8425538 L9.14620002,53.8425538" id="Line" stroke-width="10" stroke-linecap="square"></path>
                        </g>
                    </g>
                    <g id="icon-lightbulb" transform="translate(97.000000, 470.000000)">
                        <g transform="translate(13.000000, 5.000000)">
                            <path d="M8.47233852,35.5927009 L8.47233852,39.9015961" id="Line" stroke-width="10" stroke-linecap="square"></path>
                            <path d="M28.4723385,35.5927009 L28.4723385,39.9015961" id="Line" stroke-width="10" stroke-linecap="square"></path>
                            <path d="M26.8995862,35.585015 C32.8948438,32.4723938 37,26.1317181 37,18.8158614 C37,8.42414809 28.7172679,0 18.5,0 C8.28273213,0 0,8.42414809 0,18.8158614 C0,26.4735913 4.49779227,33.0628695 10.9530533,36" id="Oval" stroke-width="10"></path>
                            <path d="M24.5937826,39.8425538 L12.1462,39.8425538" id="Line" stroke-width="10" stroke-linecap="square"></path>
                            <path d="M28,53.8425538 L9.14620002,53.8425538" id="Line" stroke-width="10" stroke-linecap="square"></path>
                        </g>
                    </g>
                    <g id="icon-lightbulb" transform="translate(0.000000, 470.000000)">
                        <g transform="translate(13.000000, 5.000000)">
                            <path d="M8.47233852,35.5927009 L8.47233852,39.9015961" id="Line" stroke-width="10" stroke-linecap="square"></path>
                            <path d="M28.4723385,35.5927009 L28.4723385,39.9015961" id="Line" stroke-width="10" stroke-linecap="square"></path>
                            <path d="M26.8995862,35.585015 C32.8948438,32.4723938 37,26.1317181 37,18.8158614 C37,8.42414809 28.7172679,0 18.5,0 C8.28273213,0 0,8.42414809 0,18.8158614 C0,26.4735913 4.49779227,33.0628695 10.9530533,36" id="Oval" stroke-width="10"></path>
                            <path d="M24.5937826,39.8425538 L12.1462,39.8425538" id="Line" stroke-width="10" stroke-linecap="square"></path>
                            <path d="M28,53.8425538 L9.14620002,53.8425538" id="Line" stroke-width="10" stroke-linecap="square"></path>
                        </g>
                    </g>
                    <g id="icon-lightbulb" transform="translate(191.000000, 470.000000)">
                        <g transform="translate(13.000000, 5.000000)">
                            <path d="M8.47233852,35.5927009 L8.47233852,39.9015961" id="Line" stroke-width="10" stroke-linecap="square"></path>
                            <path d="M28.4723385,35.5927009 L28.4723385,39.9015961" id="Line" stroke-width="10" stroke-linecap="square"></path>
                            <path d="M26.8995862,35.585015 C32.8948438,32.4723938 37,26.1317181 37,18.8158614 C37,8.42414809 28.7172679,0 18.5,0 C8.28273213,0 0,8.42414809 0,18.8158614 C0,26.4735913 4.49779227,33.0628695 10.9530533,36" id="Oval" stroke-width="10"></path>
                            <path d="M24.5937826,39.8425538 L12.1462,39.8425538" id="Line" stroke-width="10" stroke-linecap="square"></path>
                            <path d="M28,53.8425538 L9.14620002,53.8425538" id="Line" stroke-width="10" stroke-linecap="square"></path>
                        </g>
                    </g>
                    <g id="icon-lightbulb" transform="translate(97.000000, 564.000000)">
                        <g transform="translate(13.000000, 5.000000)">
                            <path d="M8.47233852,35.5927009 L8.47233852,39.9015961" id="Line" stroke-width="10" stroke-linecap="square"></path>
                            <path d="M28.4723385,35.5927009 L28.4723385,39.9015961" id="Line" stroke-width="10" stroke-linecap="square"></path>
                            <path d="M26.8995862,35.585015 C32.8948438,32.4723938 37,26.1317181 37,18.8158614 C37,8.42414809 28.7172679,0 18.5,0 C8.28273213,0 0,8.42414809 0,18.8158614 C0,26.4735913 4.49779227,33.0628695 10.9530533,36" id="Oval" stroke-width="10"></path>
                            <path d="M24.5937826,39.8425538 L12.1462,39.8425538" id="Line" stroke-width="10" stroke-linecap="square"></path>
                            <path d="M28,53.8425538 L9.14620002,53.8425538" id="Line" stroke-width="10" stroke-linecap="square"></path>
                        </g>
                    </g>
                    <g id="icon-lightbulb" transform="translate(0.000000, 564.000000)">
                        <g transform="translate(13.000000, 5.000000)">
                            <path d="M8.47233852,35.5927009 L8.47233852,39.9015961" id="Line" stroke-width="10" stroke-linecap="square"></path>
                            <path d="M28.4723385,35.5927009 L28.4723385,39.9015961" id="Line" stroke-width="10" stroke-linecap="square"></path>
                            <path d="M26.8995862,35.585015 C32.8948438,32.4723938 37,26.1317181 37,18.8158614 C37,8.42414809 28.7172679,0 18.5,0 C8.28273213,0 0,8.42414809 0,18.8158614 C0,26.4735913 4.49779227,33.0628695 10.9530533,36" id="Oval" stroke-width="10"></path>
                            <path d="M24.5937826,39.8425538 L12.1462,39.8425538" id="Line" stroke-width="10" stroke-linecap="square"></path>
                            <path d="M28,53.8425538 L9.14620002,53.8425538" id="Line" stroke-width="10" stroke-linecap="square"></path>
                        </g>
                    </g>
                </g>
                <g id="Icons" transform="translate(0.000000, 1009.000000)">
                    <g id="icon-lightbulb" transform="translate(285.000000, 0.000000)">
                        <g transform="translate(13.000000, 5.000000)">
                            <path d="M8.47233852,35.5927009 L8.47233852,39.9015961" id="Line" stroke-width="10" stroke-linecap="square"></path>
                            <path d="M28.4723385,35.5927009 L28.4723385,39.9015961" id="Line" stroke-width="10" stroke-linecap="square"></path>
                            <path d="M26.8995862,35.585015 C32.8948438,32.4723938 37,26.1317181 37,18.8158614 C37,8.42414809 28.7172679,0 18.5,0 C8.28273213,0 0,8.42414809 0,18.8158614 C0,26.4735913 4.49779227,33.0628695 10.9530533,36" id="Oval" stroke-width="10"></path>
                            <path d="M24.5937826,39.8425538 L12.1462,39.8425538" id="Line" stroke-width="10" stroke-linecap="square"></path>
                            <path d="M28,53.8425538 L9.14620002,53.8425538" id="Line" stroke-width="10" stroke-linecap="square"></path>
                        </g>
                    </g>
                    <g id="icon-lightbulb" transform="translate(379.000000, 0.000000)">
                        <g transform="translate(13.000000, 5.000000)">
                            <path d="M8.47233852,35.5927009 L8.47233852,39.9015961" id="Line" stroke-width="10" stroke-linecap="square"></path>
                            <path d="M28.4723385,35.5927009 L28.4723385,39.9015961" id="Line" stroke-width="10" stroke-linecap="square"></path>
                            <path d="M26.8995862,35.585015 C32.8948438,32.4723938 37,26.1317181 37,18.8158614 C37,8.42414809 28.7172679,0 18.5,0 C8.28273213,0 0,8.42414809 0,18.8158614 C0,26.4735913 4.49779227,33.0628695 10.9530533,36" id="Oval" stroke-width="10"></path>
                            <path d="M24.5937826,39.8425538 L12.1462,39.8425538" id="Line" stroke-width="10" stroke-linecap="square"></path>
                            <path d="M28,53.8425538 L9.14620002,53.8425538" id="Line" stroke-width="10" stroke-linecap="square"></path>
                        </g>
                    </g>
                    <g id="icon-lightbulb" transform="translate(285.000000, 94.000000)">
                        <g transform="translate(13.000000, 5.000000)">
                            <path d="M8.47233852,35.5927009 L8.47233852,39.9015961" id="Line" stroke-width="10" stroke-linecap="square"></path>
                            <path d="M28.4723385,35.5927009 L28.4723385,39.9015961" id="Line" stroke-width="10" stroke-linecap="square"></path>
                            <path d="M26.8995862,35.585015 C32.8948438,32.4723938 37,26.1317181 37,18.8158614 C37,8.42414809 28.7172679,0 18.5,0 C8.28273213,0 0,8.42414809 0,18.8158614 C0,26.4735913 4.49779227,33.0628695 10.9530533,36" id="Oval" stroke-width="10"></path>
                            <path d="M24.5937826,39.8425538 L12.1462,39.8425538" id="Line" stroke-width="10" stroke-linecap="square"></path>
                            <path d="M28,53.8425538 L9.14620002,53.8425538" id="Line" stroke-width="10" stroke-linecap="square"></path>
                        </g>
                    </g>
                    <g id="icon-lightbulb" transform="translate(379.000000, 94.000000)">
                        <g transform="translate(13.000000, 5.000000)">
                            <path d="M8.47233852,35.5927009 L8.47233852,39.9015961" id="Line" stroke-width="10" stroke-linecap="square"></path>
                            <path d="M28.4723385,35.5927009 L28.4723385,39.9015961" id="Line" stroke-width="10" stroke-linecap="square"></path>
                            <path d="M26.8995862,35.585015 C32.8948438,32.4723938 37,26.1317181 37,18.8158614 C37,8.42414809 28.7172679,0 18.5,0 C8.28273213,0 0,8.42414809 0,18.8158614 C0,26.4735913 4.49779227,33.0628695 10.9530533,36" id="Oval" stroke-width="10"></path>
                            <path d="M24.5937826,39.8425538 L12.1462,39.8425538" id="Line" stroke-width="10" stroke-linecap="square"></path>
                            <path d="M28,53.8425538 L9.14620002,53.8425538" id="Line" stroke-width="10" stroke-linecap="square"></path>
                        </g>
                    </g>
                    <g id="icon-lightbulb" transform="translate(285.000000, 188.000000)">
                        <g transform="translate(13.000000, 5.000000)">
                            <path d="M8.47233852,35.5927009 L8.47233852,39.9015961" id="Line" stroke-width="10" stroke-linecap="square"></path>
                            <path d="M28.4723385,35.5927009 L28.4723385,39.9015961" id="Line" stroke-width="10" stroke-linecap="square"></path>
                            <path d="M26.8995862,35.585015 C32.8948438,32.4723938 37,26.1317181 37,18.8158614 C37,8.42414809 28.7172679,0 18.5,0 C8.28273213,0 0,8.42414809 0,18.8158614 C0,26.4735913 4.49779227,33.0628695 10.9530533,36" id="Oval" stroke-width="10"></path>
                            <path d="M24.5937826,39.8425538 L12.1462,39.8425538" id="Line" stroke-width="10" stroke-linecap="square"></path>
                            <path d="M28,53.8425538 L9.14620002,53.8425538" id="Line" stroke-width="10" stroke-linecap="square"></path>
                        </g>
                    </g>
                    <g id="icon-lightbulb" transform="translate(379.000000, 188.000000)">
                        <g transform="translate(13.000000, 5.000000)">
                            <path d="M8.47233852,35.5927009 L8.47233852,39.9015961" id="Line" stroke-width="10" stroke-linecap="square"></path>
                            <path d="M28.4723385,35.5927009 L28.4723385,39.9015961" id="Line" stroke-width="10" stroke-linecap="square"></path>
                            <path d="M26.8995862,35.585015 C32.8948438,32.4723938 37,26.1317181 37,18.8158614 C37,8.42414809 28.7172679,0 18.5,0 C8.28273213,0 0,8.42414809 0,18.8158614 C0,26.4735913 4.49779227,33.0628695 10.9530533,36" id="Oval" stroke-width="10"></path>
                            <path d="M24.5937826,39.8425538 L12.1462,39.8425538" id="Line" stroke-width="10" stroke-linecap="square"></path>
                            <path d="M28,53.8425538 L9.14620002,53.8425538" id="Line" stroke-width="10" stroke-linecap="square"></path>
                        </g>
                    </g>
                    <g id="icon-lightbulb" transform="translate(285.000000, 282.000000)">
                        <g transform="translate(13.000000, 5.000000)">
                            <path d="M8.47233852,35.5927009 L8.47233852,39.9015961" id="Line" stroke-width="10" stroke-linecap="square"></path>
                            <path d="M28.4723385,35.5927009 L28.4723385,39.9015961" id="Line" stroke-width="10" stroke-linecap="square"></path>
                            <path d="M26.8995862,35.585015 C32.8948438,32.4723938 37,26.1317181 37,18.8158614 C37,8.42414809 28.7172679,0 18.5,0 C8.28273213,0 0,8.42414809 0,18.8158614 C0,26.4735913 4.49779227,33.0628695 10.9530533,36" id="Oval" stroke-width="10"></path>
                            <path d="M24.5937826,39.8425538 L12.1462,39.8425538" id="Line" stroke-width="10" stroke-linecap="square"></path>
                            <path d="M28,53.8425538 L9.14620002,53.8425538" id="Line" stroke-width="10" stroke-linecap="square"></path>
                        </g>
                    </g>
                    <g id="icon-lightbulb" transform="translate(379.000000, 282.000000)">
                        <g transform="translate(13.000000, 5.000000)">
                            <path d="M8.47233852,35.5927009 L8.47233852,39.9015961" id="Line" stroke-width="10" stroke-linecap="square"></path>
                            <path d="M28.4723385,35.5927009 L28.4723385,39.9015961" id="Line" stroke-width="10" stroke-linecap="square"></path>
                            <path d="M26.8995862,35.585015 C32.8948438,32.4723938 37,26.1317181 37,18.8158614 C37,8.42414809 28.7172679,0 18.5,0 C8.28273213,0 0,8.42414809 0,18.8158614 C0,26.4735913 4.49779227,33.0628695 10.9530533,36" id="Oval" stroke-width="10"></path>
                            <path d="M24.5937826,39.8425538 L12.1462,39.8425538" id="Line" stroke-width="10" stroke-linecap="square"></path>
                            <path d="M28,53.8425538 L9.14620002,53.8425538" id="Line" stroke-width="10" stroke-linecap="square"></path>
                        </g>
                    </g>
                    <g id="icon-lightbulb" transform="translate(191.000000, 94.000000)">
                        <g transform="translate(13.000000, 5.000000)">
                            <path d="M8.47233852,35.5927009 L8.47233852,39.9015961" id="Line" stroke-width="10" stroke-linecap="square"></path>
                            <path d="M28.4723385,35.5927009 L28.4723385,39.9015961" id="Line" stroke-width="10" stroke-linecap="square"></path>
                            <path d="M26.8995862,35.585015 C32.8948438,32.4723938 37,26.1317181 37,18.8158614 C37,8.42414809 28.7172679,0 18.5,0 C8.28273213,0 0,8.42414809 0,18.8158614 C0,26.4735913 4.49779227,33.0628695 10.9530533,36" id="Oval" stroke-width="10"></path>
                            <path d="M24.5937826,39.8425538 L12.1462,39.8425538" id="Line" stroke-width="10" stroke-linecap="square"></path>
                            <path d="M28,53.8425538 L9.14620002,53.8425538" id="Line" stroke-width="10" stroke-linecap="square"></path>
                        </g>
                    </g>
                    <g id="icon-lightbulb" transform="translate(97.000000, 188.000000)">
                        <g transform="translate(13.000000, 5.000000)">
                            <path d="M8.47233852,35.5927009 L8.47233852,39.9015961" id="Line" stroke-width="10" stroke-linecap="square"></path>
                            <path d="M28.4723385,35.5927009 L28.4723385,39.9015961" id="Line" stroke-width="10" stroke-linecap="square"></path>
                            <path d="M26.8995862,35.585015 C32.8948438,32.4723938 37,26.1317181 37,18.8158614 C37,8.42414809 28.7172679,0 18.5,0 C8.28273213,0 0,8.42414809 0,18.8158614 C0,26.4735913 4.49779227,33.0628695 10.9530533,36" id="Oval" stroke-width="10"></path>
                            <path d="M24.5937826,39.8425538 L12.1462,39.8425538" id="Line" stroke-width="10" stroke-linecap="square"></path>
                            <path d="M28,53.8425538 L9.14620002,53.8425538" id="Line" stroke-width="10" stroke-linecap="square"></path>
                        </g>
                    </g>
                    <g id="icon-lightbulb" transform="translate(191.000000, 188.000000)">
                        <g transform="translate(13.000000, 5.000000)">
                            <path d="M8.47233852,35.5927009 L8.47233852,39.9015961" id="Line" stroke-width="10" stroke-linecap="square"></path>
                            <path d="M28.4723385,35.5927009 L28.4723385,39.9015961" id="Line" stroke-width="10" stroke-linecap="square"></path>
                            <path d="M26.8995862,35.585015 C32.8948438,32.4723938 37,26.1317181 37,18.8158614 C37,8.42414809 28.7172679,0 18.5,0 C8.28273213,0 0,8.42414809 0,18.8158614 C0,26.4735913 4.49779227,33.0628695 10.9530533,36" id="Oval" stroke-width="10"></path>
                            <path d="M24.5937826,39.8425538 L12.1462,39.8425538" id="Line" stroke-width="10" stroke-linecap="square"></path>
                            <path d="M28,53.8425538 L9.14620002,53.8425538" id="Line" stroke-width="10" stroke-linecap="square"></path>
                        </g>
                    </g>
                    <g id="icon-lightbulb" transform="translate(97.000000, 282.000000)">
                        <g transform="translate(13.000000, 5.000000)">
                            <path d="M8.47233852,35.5927009 L8.47233852,39.9015961" id="Line" stroke-width="10" stroke-linecap="square"></path>
                            <path d="M28.4723385,35.5927009 L28.4723385,39.9015961" id="Line" stroke-width="10" stroke-linecap="square"></path>
                            <path d="M26.8995862,35.585015 C32.8948438,32.4723938 37,26.1317181 37,18.8158614 C37,8.42414809 28.7172679,0 18.5,0 C8.28273213,0 0,8.42414809 0,18.8158614 C0,26.4735913 4.49779227,33.0628695 10.9530533,36" id="Oval" stroke-width="10"></path>
                            <path d="M24.5937826,39.8425538 L12.1462,39.8425538" id="Line" stroke-width="10" stroke-linecap="square"></path>
                            <path d="M28,53.8425538 L9.14620002,53.8425538" id="Line" stroke-width="10" stroke-linecap="square"></path>
                        </g>
                    </g>
                    <g id="icon-lightbulb" transform="translate(0.000000, 282.000000)">
                        <g transform="translate(13.000000, 5.000000)">
                            <path d="M8.47233852,35.5927009 L8.47233852,39.9015961" id="Line" stroke-width="10" stroke-linecap="square"></path>
                            <path d="M28.4723385,35.5927009 L28.4723385,39.9015961" id="Line" stroke-width="10" stroke-linecap="square"></path>
                            <path d="M26.8995862,35.585015 C32.8948438,32.4723938 37,26.1317181 37,18.8158614 C37,8.42414809 28.7172679,0 18.5,0 C8.28273213,0 0,8.42414809 0,18.8158614 C0,26.4735913 4.49779227,33.0628695 10.9530533,36" id="Oval" stroke-width="10"></path>
                            <path d="M24.5937826,39.8425538 L12.1462,39.8425538" id="Line" stroke-width="10" stroke-linecap="square"></path>
                            <path d="M28,53.8425538 L9.14620002,53.8425538" id="Line" stroke-width="10" stroke-linecap="square"></path>
                        </g>
                    </g>
                    <g id="icon-lightbulb" transform="translate(191.000000, 282.000000)">
                        <g transform="translate(13.000000, 5.000000)">
                            <path d="M8.47233852,35.5927009 L8.47233852,39.9015961" id="Line" stroke-width="10" stroke-linecap="square"></path>
                            <path d="M28.4723385,35.5927009 L28.4723385,39.9015961" id="Line" stroke-width="10" stroke-linecap="square"></path>
                            <path d="M26.8995862,35.585015 C32.8948438,32.4723938 37,26.1317181 37,18.8158614 C37,8.42414809 28.7172679,0 18.5,0 C8.28273213,0 0,8.42414809 0,18.8158614 C0,26.4735913 4.49779227,33.0628695 10.9530533,36" id="Oval" stroke-width="10"></path>
                            <path d="M24.5937826,39.8425538 L12.1462,39.8425538" id="Line" stroke-width="10" stroke-linecap="square"></path>
                            <path d="M28,53.8425538 L9.14620002,53.8425538" id="Line" stroke-width="10" stroke-linecap="square"></path>
                        </g>
                    </g>
                    <g id="icon-lightbulb" transform="translate(285.000000, 376.000000)">
                        <g transform="translate(13.000000, 5.000000)">
                            <path d="M8.47233852,35.5927009 L8.47233852,39.9015961" id="Line" stroke-width="10" stroke-linecap="square"></path>
                            <path d="M28.4723385,35.5927009 L28.4723385,39.9015961" id="Line" stroke-width="10" stroke-linecap="square"></path>
                            <path d="M26.8995862,35.585015 C32.8948438,32.4723938 37,26.1317181 37,18.8158614 C37,8.42414809 28.7172679,0 18.5,0 C8.28273213,0 0,8.42414809 0,18.8158614 C0,26.4735913 4.49779227,33.0628695 10.9530533,36" id="Oval" stroke-width="10"></path>
                            <path d="M24.5937826,39.8425538 L12.1462,39.8425538" id="Line" stroke-width="10" stroke-linecap="square"></path>
                            <path d="M28,53.8425538 L9.14620002,53.8425538" id="Line" stroke-width="10" stroke-linecap="square"></path>
                        </g>
                    </g>
                    <g id="icon-lightbulb" transform="translate(97.000000, 376.000000)">
                        <g transform="translate(13.000000, 5.000000)">
                            <path d="M8.47233852,35.5927009 L8.47233852,39.9015961" id="Line" stroke-width="10" stroke-linecap="square"></path>
                            <path d="M28.4723385,35.5927009 L28.4723385,39.9015961" id="Line" stroke-width="10" stroke-linecap="square"></path>
                            <path d="M26.8995862,35.585015 C32.8948438,32.4723938 37,26.1317181 37,18.8158614 C37,8.42414809 28.7172679,0 18.5,0 C8.28273213,0 0,8.42414809 0,18.8158614 C0,26.4735913 4.49779227,33.0628695 10.9530533,36" id="Oval" stroke-width="10"></path>
                            <path d="M24.5937826,39.8425538 L12.1462,39.8425538" id="Line" stroke-width="10" stroke-linecap="square"></path>
                            <path d="M28,53.8425538 L9.14620002,53.8425538" id="Line" stroke-width="10" stroke-linecap="square"></path>
                        </g>
                    </g>
                    <g id="icon-lightbulb" transform="translate(0.000000, 376.000000)">
                        <g transform="translate(13.000000, 5.000000)">
                            <path d="M8.47233852,35.5927009 L8.47233852,39.9015961" id="Line" stroke-width="10" stroke-linecap="square"></path>
                            <path d="M28.4723385,35.5927009 L28.4723385,39.9015961" id="Line" stroke-width="10" stroke-linecap="square"></path>
                            <path d="M26.8995862,35.585015 C32.8948438,32.4723938 37,26.1317181 37,18.8158614 C37,8.42414809 28.7172679,0 18.5,0 C8.28273213,0 0,8.42414809 0,18.8158614 C0,26.4735913 4.49779227,33.0628695 10.9530533,36" id="Oval" stroke-width="10"></path>
                            <path d="M24.5937826,39.8425538 L12.1462,39.8425538" id="Line" stroke-width="10" stroke-linecap="square"></path>
                            <path d="M28,53.8425538 L9.14620002,53.8425538" id="Line" stroke-width="10" stroke-linecap="square"></path>
                        </g>
                    </g>
                    <g id="icon-lightbulb" transform="translate(191.000000, 376.000000)">
                        <g transform="translate(13.000000, 5.000000)">
                            <path d="M8.47233852,35.5927009 L8.47233852,39.9015961" id="Line" stroke-width="10" stroke-linecap="square"></path>
                            <path d="M28.4723385,35.5927009 L28.4723385,39.9015961" id="Line" stroke-width="10" stroke-linecap="square"></path>
                            <path d="M26.8995862,35.585015 C32.8948438,32.4723938 37,26.1317181 37,18.8158614 C37,8.42414809 28.7172679,0 18.5,0 C8.28273213,0 0,8.42414809 0,18.8158614 C0,26.4735913 4.49779227,33.0628695 10.9530533,36" id="Oval" stroke-width="10"></path>
                            <path d="M24.5937826,39.8425538 L12.1462,39.8425538" id="Line" stroke-width="10" stroke-linecap="square"></path>
                            <path d="M28,53.8425538 L9.14620002,53.8425538" id="Line" stroke-width="10" stroke-linecap="square"></path>
                        </g>
                    </g>
                    <g id="icon-lightbulb" transform="translate(97.000000, 470.000000)">
                        <g transform="translate(13.000000, 5.000000)">
                            <path d="M8.47233852,35.5927009 L8.47233852,39.9015961" id="Line" stroke-width="10" stroke-linecap="square"></path>
                            <path d="M28.4723385,35.5927009 L28.4723385,39.9015961" id="Line" stroke-width="10" stroke-linecap="square"></path>
                            <path d="M26.8995862,35.585015 C32.8948438,32.4723938 37,26.1317181 37,18.8158614 C37,8.42414809 28.7172679,0 18.5,0 C8.28273213,0 0,8.42414809 0,18.8158614 C0,26.4735913 4.49779227,33.0628695 10.9530533,36" id="Oval" stroke-width="10"></path>
                            <path d="M24.5937826,39.8425538 L12.1462,39.8425538" id="Line" stroke-width="10" stroke-linecap="square"></path>
                            <path d="M28,53.8425538 L9.14620002,53.8425538" id="Line" stroke-width="10" stroke-linecap="square"></path>
                        </g>
                    </g>
                    <g id="icon-lightbulb" transform="translate(0.000000, 470.000000)">
                        <g transform="translate(13.000000, 5.000000)">
                            <path d="M8.47233852,35.5927009 L8.47233852,39.9015961" id="Line" stroke-width="10" stroke-linecap="square"></path>
                            <path d="M28.4723385,35.5927009 L28.4723385,39.9015961" id="Line" stroke-width="10" stroke-linecap="square"></path>
                            <path d="M26.8995862,35.585015 C32.8948438,32.4723938 37,26.1317181 37,18.8158614 C37,8.42414809 28.7172679,0 18.5,0 C8.28273213,0 0,8.42414809 0,18.8158614 C0,26.4735913 4.49779227,33.0628695 10.9530533,36" id="Oval" stroke-width="10"></path>
                            <path d="M24.5937826,39.8425538 L12.1462,39.8425538" id="Line" stroke-width="10" stroke-linecap="square"></path>
                            <path d="M28,53.8425538 L9.14620002,53.8425538" id="Line" stroke-width="10" stroke-linecap="square"></path>
                        </g>
                    </g>
                    <g id="icon-lightbulb" transform="translate(191.000000, 470.000000)">
                        <g transform="translate(13.000000, 5.000000)">
                            <path d="M8.47233852,35.5927009 L8.47233852,39.9015961" id="Line" stroke-width="10" stroke-linecap="square"></path>
                            <path d="M28.4723385,35.5927009 L28.4723385,39.9015961" id="Line" stroke-width="10" stroke-linecap="square"></path>
                            <path d="M26.8995862,35.585015 C32.8948438,32.4723938 37,26.1317181 37,18.8158614 C37,8.42414809 28.7172679,0 18.5,0 C8.28273213,0 0,8.42414809 0,18.8158614 C0,26.4735913 4.49779227,33.0628695 10.9530533,36" id="Oval" stroke-width="10"></path>
                            <path d="M24.5937826,39.8425538 L12.1462,39.8425538" id="Line" stroke-width="10" stroke-linecap="square"></path>
                            <path d="M28,53.8425538 L9.14620002,53.8425538" id="Line" stroke-width="10" stroke-linecap="square"></path>
                        </g>
                    </g>
                    <g id="icon-lightbulb" transform="translate(97.000000, 564.000000)">
                        <g transform="translate(13.000000, 5.000000)">
                            <path d="M8.47233852,35.5927009 L8.47233852,39.9015961" id="Line" stroke-width="10" stroke-linecap="square"></path>
                            <path d="M28.4723385,35.5927009 L28.4723385,39.9015961" id="Line" stroke-width="10" stroke-linecap="square"></path>
                            <path d="M26.8995862,35.585015 C32.8948438,32.4723938 37,26.1317181 37,18.8158614 C37,8.42414809 28.7172679,0 18.5,0 C8.28273213,0 0,8.42414809 0,18.8158614 C0,26.4735913 4.49779227,33.0628695 10.9530533,36" id="Oval" stroke-width="10"></path>
                            <path d="M24.5937826,39.8425538 L12.1462,39.8425538" id="Line" stroke-width="10" stroke-linecap="square"></path>
                            <path d="M28,53.8425538 L9.14620002,53.8425538" id="Line" stroke-width="10" stroke-linecap="square"></path>
                        </g>
                    </g>
                    <g id="icon-lightbulb" transform="translate(0.000000, 564.000000)">
                        <g transform="translate(13.000000, 5.000000)">
                            <path d="M8.47233852,35.5927009 L8.47233852,39.9015961" id="Line" stroke-width="10" stroke-linecap="square"></path>
                            <path d="M28.4723385,35.5927009 L28.4723385,39.9015961" id="Line" stroke-width="10" stroke-linecap="square"></path>
                            <path d="M26.8995862,35.585015 C32.8948438,32.4723938 37,26.1317181 37,18.8158614 C37,8.42414809 28.7172679,0 18.5,0 C8.28273213,0 0,8.42414809 0,18.8158614 C0,26.4735913 4.49779227,33.0628695 10.9530533,36" id="Oval" stroke-width="10"></path>
                            <path d="M24.5937826,39.8425538 L12.1462,39.8425538" id="Line" stroke-width="10" stroke-linecap="square"></path>
                            <path d="M28,53.8425538 L9.14620002,53.8425538" id="Line" stroke-width="10" stroke-linecap="square"></path>
                        </g>
                    </g>
                </g>
            </g>
        </g>
    </g>
</svg>